<?xml version="1.0" encoding="utf-8" standalone="no"?>
<!DOCTYPE svg PUBLIC "-//W3C//DTD SVG 1.1//EN"
  "http://www.w3.org/Graphics/SVG/1.1/DTD/svg11.dtd">
<svg xmlns:xlink="http://www.w3.org/1999/xlink" width="460.8pt" height="345.6pt" viewBox="0 0 460.8 345.6" xmlns="http://www.w3.org/2000/svg" version="1.1">
 <metadata>
  <rdf:RDF xmlns:dc="http://purl.org/dc/elements/1.1/" xmlns:cc="http://creativecommons.org/ns#" xmlns:rdf="http://www.w3.org/1999/02/22-rdf-syntax-ns#">
   <cc:Work>
    <dc:type rdf:resource="http://purl.org/dc/dcmitype/StillImage"/>
    <dc:date>2023-08-03T15:41:14.830236</dc:date>
    <dc:format>image/svg+xml</dc:format>
    <dc:creator>
     <cc:Agent>
      <dc:title>Matplotlib v3.7.1, https://matplotlib.org/</dc:title>
     </cc:Agent>
    </dc:creator>
   </cc:Work>
  </rdf:RDF>
 </metadata>
 <defs>
  <style type="text/css">*{stroke-linejoin: round; stroke-linecap: butt}</style>
 </defs>
 <g id="figure_1">
  <g id="patch_1">
   <path d="M 0 345.6 
L 460.8 345.6 
L 460.8 0 
L 0 0 
z
" style="fill: #ffffff"/>
  </g>
  <g id="axes_1">
   <g id="patch_2">
    <path d="M 57.6 307.584 
L 414.72 307.584 
L 414.72 41.472 
L 57.6 41.472 
z
" style="fill: #ffffff"/>
   </g>
   <g id="matplotlib.axis_1">
    <g id="xtick_1">
     <g id="line2d_1">
      <defs>
       <path id="m24b0a7516a" d="M 0 0 
L 0 3.5 
" style="stroke: #000000; stroke-width: 0.8"/>
      </defs>
      <g>
       <use xlink:href="#m24b0a7516a" x="70.158005" y="307.584" style="stroke: #000000; stroke-width: 0.8"/>
      </g>
     </g>
     <g id="text_1">
      <!-- 0 -->
      <g transform="translate(66.976755 322.182437) scale(0.1 -0.1)">
       <defs>
        <path id="DejaVuSans-30" d="M 2034 4250 
Q 1547 4250 1301 3770 
Q 1056 3291 1056 2328 
Q 1056 1369 1301 889 
Q 1547 409 2034 409 
Q 2525 409 2770 889 
Q 3016 1369 3016 2328 
Q 3016 3291 2770 3770 
Q 2525 4250 2034 4250 
z
M 2034 4750 
Q 2819 4750 3233 4129 
Q 3647 3509 3647 2328 
Q 3647 1150 3233 529 
Q 2819 -91 2034 -91 
Q 1250 -91 836 529 
Q 422 1150 422 2328 
Q 422 3509 836 4129 
Q 1250 4750 2034 4750 
z
" transform="scale(0.015625)"/>
       </defs>
       <use xlink:href="#DejaVuSans-30"/>
      </g>
     </g>
    </g>
    <g id="xtick_2">
     <g id="line2d_2">
      <g>
       <use xlink:href="#m24b0a7516a" x="145.614315" y="307.584" style="stroke: #000000; stroke-width: 0.8"/>
      </g>
     </g>
     <g id="text_2">
      <!-- 20000 -->
      <g transform="translate(129.708065 322.182437) scale(0.1 -0.1)">
       <defs>
        <path id="DejaVuSans-32" d="M 1228 531 
L 3431 531 
L 3431 0 
L 469 0 
L 469 531 
Q 828 903 1448 1529 
Q 2069 2156 2228 2338 
Q 2531 2678 2651 2914 
Q 2772 3150 2772 3378 
Q 2772 3750 2511 3984 
Q 2250 4219 1831 4219 
Q 1534 4219 1204 4116 
Q 875 4013 500 3803 
L 500 4441 
Q 881 4594 1212 4672 
Q 1544 4750 1819 4750 
Q 2544 4750 2975 4387 
Q 3406 4025 3406 3419 
Q 3406 3131 3298 2873 
Q 3191 2616 2906 2266 
Q 2828 2175 2409 1742 
Q 1991 1309 1228 531 
z
" transform="scale(0.015625)"/>
       </defs>
       <use xlink:href="#DejaVuSans-32"/>
       <use xlink:href="#DejaVuSans-30" x="63.623047"/>
       <use xlink:href="#DejaVuSans-30" x="127.246094"/>
       <use xlink:href="#DejaVuSans-30" x="190.869141"/>
       <use xlink:href="#DejaVuSans-30" x="254.492188"/>
      </g>
     </g>
    </g>
    <g id="xtick_3">
     <g id="line2d_3">
      <g>
       <use xlink:href="#m24b0a7516a" x="221.070624" y="307.584" style="stroke: #000000; stroke-width: 0.8"/>
      </g>
     </g>
     <g id="text_3">
      <!-- 40000 -->
      <g transform="translate(205.164374 322.182437) scale(0.1 -0.1)">
       <defs>
        <path id="DejaVuSans-34" d="M 2419 4116 
L 825 1625 
L 2419 1625 
L 2419 4116 
z
M 2253 4666 
L 3047 4666 
L 3047 1625 
L 3713 1625 
L 3713 1100 
L 3047 1100 
L 3047 0 
L 2419 0 
L 2419 1100 
L 313 1100 
L 313 1709 
L 2253 4666 
z
" transform="scale(0.015625)"/>
       </defs>
       <use xlink:href="#DejaVuSans-34"/>
       <use xlink:href="#DejaVuSans-30" x="63.623047"/>
       <use xlink:href="#DejaVuSans-30" x="127.246094"/>
       <use xlink:href="#DejaVuSans-30" x="190.869141"/>
       <use xlink:href="#DejaVuSans-30" x="254.492188"/>
      </g>
     </g>
    </g>
    <g id="xtick_4">
     <g id="line2d_4">
      <g>
       <use xlink:href="#m24b0a7516a" x="296.526934" y="307.584" style="stroke: #000000; stroke-width: 0.8"/>
      </g>
     </g>
     <g id="text_4">
      <!-- 60000 -->
      <g transform="translate(280.620684 322.182437) scale(0.1 -0.1)">
       <defs>
        <path id="DejaVuSans-36" d="M 2113 2584 
Q 1688 2584 1439 2293 
Q 1191 2003 1191 1497 
Q 1191 994 1439 701 
Q 1688 409 2113 409 
Q 2538 409 2786 701 
Q 3034 994 3034 1497 
Q 3034 2003 2786 2293 
Q 2538 2584 2113 2584 
z
M 3366 4563 
L 3366 3988 
Q 3128 4100 2886 4159 
Q 2644 4219 2406 4219 
Q 1781 4219 1451 3797 
Q 1122 3375 1075 2522 
Q 1259 2794 1537 2939 
Q 1816 3084 2150 3084 
Q 2853 3084 3261 2657 
Q 3669 2231 3669 1497 
Q 3669 778 3244 343 
Q 2819 -91 2113 -91 
Q 1303 -91 875 529 
Q 447 1150 447 2328 
Q 447 3434 972 4092 
Q 1497 4750 2381 4750 
Q 2619 4750 2861 4703 
Q 3103 4656 3366 4563 
z
" transform="scale(0.015625)"/>
       </defs>
       <use xlink:href="#DejaVuSans-36"/>
       <use xlink:href="#DejaVuSans-30" x="63.623047"/>
       <use xlink:href="#DejaVuSans-30" x="127.246094"/>
       <use xlink:href="#DejaVuSans-30" x="190.869141"/>
       <use xlink:href="#DejaVuSans-30" x="254.492188"/>
      </g>
     </g>
    </g>
    <g id="xtick_5">
     <g id="line2d_5">
      <g>
       <use xlink:href="#m24b0a7516a" x="371.983244" y="307.584" style="stroke: #000000; stroke-width: 0.8"/>
      </g>
     </g>
     <g id="text_5">
      <!-- 80000 -->
      <g transform="translate(356.076994 322.182437) scale(0.1 -0.1)">
       <defs>
        <path id="DejaVuSans-38" d="M 2034 2216 
Q 1584 2216 1326 1975 
Q 1069 1734 1069 1313 
Q 1069 891 1326 650 
Q 1584 409 2034 409 
Q 2484 409 2743 651 
Q 3003 894 3003 1313 
Q 3003 1734 2745 1975 
Q 2488 2216 2034 2216 
z
M 1403 2484 
Q 997 2584 770 2862 
Q 544 3141 544 3541 
Q 544 4100 942 4425 
Q 1341 4750 2034 4750 
Q 2731 4750 3128 4425 
Q 3525 4100 3525 3541 
Q 3525 3141 3298 2862 
Q 3072 2584 2669 2484 
Q 3125 2378 3379 2068 
Q 3634 1759 3634 1313 
Q 3634 634 3220 271 
Q 2806 -91 2034 -91 
Q 1263 -91 848 271 
Q 434 634 434 1313 
Q 434 1759 690 2068 
Q 947 2378 1403 2484 
z
M 1172 3481 
Q 1172 3119 1398 2916 
Q 1625 2713 2034 2713 
Q 2441 2713 2670 2916 
Q 2900 3119 2900 3481 
Q 2900 3844 2670 4047 
Q 2441 4250 2034 4250 
Q 1625 4250 1398 4047 
Q 1172 3844 1172 3481 
z
" transform="scale(0.015625)"/>
       </defs>
       <use xlink:href="#DejaVuSans-38"/>
       <use xlink:href="#DejaVuSans-30" x="63.623047"/>
       <use xlink:href="#DejaVuSans-30" x="127.246094"/>
       <use xlink:href="#DejaVuSans-30" x="190.869141"/>
       <use xlink:href="#DejaVuSans-30" x="254.492188"/>
      </g>
     </g>
    </g>
    <g id="text_6">
     <!-- $N_{train}$ -->
     <g transform="translate(224.11 335.860562) scale(0.1 -0.1)">
      <defs>
       <path id="DejaVuSans-Oblique-4e" d="M 1081 4666 
L 1931 4666 
L 3219 666 
L 4000 4666 
L 4616 4666 
L 3706 0 
L 2853 0 
L 1569 4025 
L 788 0 
L 172 0 
L 1081 4666 
z
" transform="scale(0.015625)"/>
       <path id="DejaVuSans-Oblique-74" d="M 2706 3500 
L 2619 3053 
L 1472 3053 
L 1100 1153 
Q 1081 1047 1072 975 
Q 1063 903 1063 863 
Q 1063 663 1183 572 
Q 1303 481 1569 481 
L 2150 481 
L 2053 0 
L 1503 0 
Q 991 0 739 200 
Q 488 400 488 806 
Q 488 878 497 964 
Q 506 1050 525 1153 
L 897 3053 
L 409 3053 
L 500 3500 
L 978 3500 
L 1172 4494 
L 1747 4494 
L 1556 3500 
L 2706 3500 
z
" transform="scale(0.015625)"/>
       <path id="DejaVuSans-Oblique-72" d="M 2853 2969 
Q 2766 3016 2653 3041 
Q 2541 3066 2413 3066 
Q 1953 3066 1609 2717 
Q 1266 2369 1153 1784 
L 800 0 
L 225 0 
L 909 3500 
L 1484 3500 
L 1375 2956 
Q 1603 3259 1920 3421 
Q 2238 3584 2597 3584 
Q 2691 3584 2781 3573 
Q 2872 3563 2963 3538 
L 2853 2969 
z
" transform="scale(0.015625)"/>
       <path id="DejaVuSans-Oblique-61" d="M 3438 1997 
L 3047 0 
L 2472 0 
L 2578 531 
Q 2325 219 2001 64 
Q 1678 -91 1281 -91 
Q 834 -91 548 182 
Q 263 456 263 884 
Q 263 1497 752 1853 
Q 1241 2209 2100 2209 
L 2900 2209 
L 2931 2363 
Q 2938 2388 2941 2417 
Q 2944 2447 2944 2509 
Q 2944 2788 2717 2942 
Q 2491 3097 2081 3097 
Q 1800 3097 1504 3025 
Q 1209 2953 897 2809 
L 997 3341 
Q 1322 3463 1633 3523 
Q 1944 3584 2234 3584 
Q 2853 3584 3176 3315 
Q 3500 3047 3500 2534 
Q 3500 2431 3484 2292 
Q 3469 2153 3438 1997 
z
M 2816 1759 
L 2241 1759 
Q 1534 1759 1195 1570 
Q 856 1381 856 984 
Q 856 709 1029 553 
Q 1203 397 1509 397 
Q 1978 397 2328 733 
Q 2678 1069 2791 1631 
L 2816 1759 
z
" transform="scale(0.015625)"/>
       <path id="DejaVuSans-Oblique-69" d="M 1172 4863 
L 1747 4863 
L 1606 4134 
L 1031 4134 
L 1172 4863 
z
M 909 3500 
L 1484 3500 
L 800 0 
L 225 0 
L 909 3500 
z
" transform="scale(0.015625)"/>
       <path id="DejaVuSans-Oblique-6e" d="M 3566 2113 
L 3156 0 
L 2578 0 
L 2988 2091 
Q 3016 2238 3031 2350 
Q 3047 2463 3047 2528 
Q 3047 2791 2881 2937 
Q 2716 3084 2419 3084 
Q 1956 3084 1622 2776 
Q 1288 2469 1184 1941 
L 800 0 
L 225 0 
L 903 3500 
L 1478 3500 
L 1363 2950 
Q 1603 3253 1940 3418 
Q 2278 3584 2650 3584 
Q 3113 3584 3367 3334 
Q 3622 3084 3622 2631 
Q 3622 2519 3608 2391 
Q 3594 2263 3566 2113 
z
" transform="scale(0.015625)"/>
      </defs>
      <use xlink:href="#DejaVuSans-Oblique-4e" transform="translate(0 0.09375)"/>
      <use xlink:href="#DejaVuSans-Oblique-74" transform="translate(74.804688 -16.3125) scale(0.7)"/>
      <use xlink:href="#DejaVuSans-Oblique-72" transform="translate(102.250977 -16.3125) scale(0.7)"/>
      <use xlink:href="#DejaVuSans-Oblique-61" transform="translate(131.030273 -16.3125) scale(0.7)"/>
      <use xlink:href="#DejaVuSans-Oblique-69" transform="translate(173.925781 -16.3125) scale(0.7)"/>
      <use xlink:href="#DejaVuSans-Oblique-6e" transform="translate(193.374023 -16.3125) scale(0.7)"/>
     </g>
    </g>
   </g>
   <g id="matplotlib.axis_2">
    <g id="ytick_1">
     <g id="line2d_6">
      <defs>
       <path id="m4c5901e707" d="M 0 0 
L -3.5 0 
" style="stroke: #000000; stroke-width: 0.8"/>
      </defs>
      <g>
       <use xlink:href="#m4c5901e707" x="57.6" y="288.329451" style="stroke: #000000; stroke-width: 0.8"/>
      </g>
     </g>
     <g id="text_7">
      <!-- 0.4 -->
      <g transform="translate(34.696875 292.12867) scale(0.1 -0.1)">
       <defs>
        <path id="DejaVuSans-2e" d="M 684 794 
L 1344 794 
L 1344 0 
L 684 0 
L 684 794 
z
" transform="scale(0.015625)"/>
       </defs>
       <use xlink:href="#DejaVuSans-30"/>
       <use xlink:href="#DejaVuSans-2e" x="63.623047"/>
       <use xlink:href="#DejaVuSans-34" x="95.410156"/>
      </g>
     </g>
    </g>
    <g id="ytick_2">
     <g id="line2d_7">
      <g>
       <use xlink:href="#m4c5901e707" x="57.6" y="248.639754" style="stroke: #000000; stroke-width: 0.8"/>
      </g>
     </g>
     <g id="text_8">
      <!-- 0.5 -->
      <g transform="translate(34.696875 252.438973) scale(0.1 -0.1)">
       <defs>
        <path id="DejaVuSans-35" d="M 691 4666 
L 3169 4666 
L 3169 4134 
L 1269 4134 
L 1269 2991 
Q 1406 3038 1543 3061 
Q 1681 3084 1819 3084 
Q 2600 3084 3056 2656 
Q 3513 2228 3513 1497 
Q 3513 744 3044 326 
Q 2575 -91 1722 -91 
Q 1428 -91 1123 -41 
Q 819 9 494 109 
L 494 744 
Q 775 591 1075 516 
Q 1375 441 1709 441 
Q 2250 441 2565 725 
Q 2881 1009 2881 1497 
Q 2881 1984 2565 2268 
Q 2250 2553 1709 2553 
Q 1456 2553 1204 2497 
Q 953 2441 691 2322 
L 691 4666 
z
" transform="scale(0.015625)"/>
       </defs>
       <use xlink:href="#DejaVuSans-30"/>
       <use xlink:href="#DejaVuSans-2e" x="63.623047"/>
       <use xlink:href="#DejaVuSans-35" x="95.410156"/>
      </g>
     </g>
    </g>
    <g id="ytick_3">
     <g id="line2d_8">
      <g>
       <use xlink:href="#m4c5901e707" x="57.6" y="208.950058" style="stroke: #000000; stroke-width: 0.8"/>
      </g>
     </g>
     <g id="text_9">
      <!-- 0.6 -->
      <g transform="translate(34.696875 212.749276) scale(0.1 -0.1)">
       <use xlink:href="#DejaVuSans-30"/>
       <use xlink:href="#DejaVuSans-2e" x="63.623047"/>
       <use xlink:href="#DejaVuSans-36" x="95.410156"/>
      </g>
     </g>
    </g>
    <g id="ytick_4">
     <g id="line2d_9">
      <g>
       <use xlink:href="#m4c5901e707" x="57.6" y="169.260361" style="stroke: #000000; stroke-width: 0.8"/>
      </g>
     </g>
     <g id="text_10">
      <!-- 0.7 -->
      <g transform="translate(34.696875 173.05958) scale(0.1 -0.1)">
       <defs>
        <path id="DejaVuSans-37" d="M 525 4666 
L 3525 4666 
L 3525 4397 
L 1831 0 
L 1172 0 
L 2766 4134 
L 525 4134 
L 525 4666 
z
" transform="scale(0.015625)"/>
       </defs>
       <use xlink:href="#DejaVuSans-30"/>
       <use xlink:href="#DejaVuSans-2e" x="63.623047"/>
       <use xlink:href="#DejaVuSans-37" x="95.410156"/>
      </g>
     </g>
    </g>
    <g id="ytick_5">
     <g id="line2d_10">
      <g>
       <use xlink:href="#m4c5901e707" x="57.6" y="129.570664" style="stroke: #000000; stroke-width: 0.8"/>
      </g>
     </g>
     <g id="text_11">
      <!-- 0.8 -->
      <g transform="translate(34.696875 133.369883) scale(0.1 -0.1)">
       <use xlink:href="#DejaVuSans-30"/>
       <use xlink:href="#DejaVuSans-2e" x="63.623047"/>
       <use xlink:href="#DejaVuSans-38" x="95.410156"/>
      </g>
     </g>
    </g>
    <g id="ytick_6">
     <g id="line2d_11">
      <g>
       <use xlink:href="#m4c5901e707" x="57.6" y="89.880968" style="stroke: #000000; stroke-width: 0.8"/>
      </g>
     </g>
     <g id="text_12">
      <!-- 0.9 -->
      <g transform="translate(34.696875 93.680186) scale(0.1 -0.1)">
       <defs>
        <path id="DejaVuSans-39" d="M 703 97 
L 703 672 
Q 941 559 1184 500 
Q 1428 441 1663 441 
Q 2288 441 2617 861 
Q 2947 1281 2994 2138 
Q 2813 1869 2534 1725 
Q 2256 1581 1919 1581 
Q 1219 1581 811 2004 
Q 403 2428 403 3163 
Q 403 3881 828 4315 
Q 1253 4750 1959 4750 
Q 2769 4750 3195 4129 
Q 3622 3509 3622 2328 
Q 3622 1225 3098 567 
Q 2575 -91 1691 -91 
Q 1453 -91 1209 -44 
Q 966 3 703 97 
z
M 1959 2075 
Q 2384 2075 2632 2365 
Q 2881 2656 2881 3163 
Q 2881 3666 2632 3958 
Q 2384 4250 1959 4250 
Q 1534 4250 1286 3958 
Q 1038 3666 1038 3163 
Q 1038 2656 1286 2365 
Q 1534 2075 1959 2075 
z
" transform="scale(0.015625)"/>
       </defs>
       <use xlink:href="#DejaVuSans-30"/>
       <use xlink:href="#DejaVuSans-2e" x="63.623047"/>
       <use xlink:href="#DejaVuSans-39" x="95.410156"/>
      </g>
     </g>
    </g>
    <g id="ytick_7">
     <g id="line2d_12">
      <g>
       <use xlink:href="#m4c5901e707" x="57.6" y="50.191271" style="stroke: #000000; stroke-width: 0.8"/>
      </g>
     </g>
     <g id="text_13">
      <!-- 1.0 -->
      <g transform="translate(34.696875 53.99049) scale(0.1 -0.1)">
       <defs>
        <path id="DejaVuSans-31" d="M 794 531 
L 1825 531 
L 1825 4091 
L 703 3866 
L 703 4441 
L 1819 4666 
L 2450 4666 
L 2450 531 
L 3481 531 
L 3481 0 
L 794 0 
L 794 531 
z
" transform="scale(0.015625)"/>
       </defs>
       <use xlink:href="#DejaVuSans-31"/>
       <use xlink:href="#DejaVuSans-2e" x="63.623047"/>
       <use xlink:href="#DejaVuSans-30" x="95.410156"/>
      </g>
     </g>
    </g>
    <g id="text_14">
     <!-- Accuracy -->
     <g transform="translate(28.617187 197.356125) rotate(-90) scale(0.1 -0.1)">
      <defs>
       <path id="DejaVuSans-41" d="M 2188 4044 
L 1331 1722 
L 3047 1722 
L 2188 4044 
z
M 1831 4666 
L 2547 4666 
L 4325 0 
L 3669 0 
L 3244 1197 
L 1141 1197 
L 716 0 
L 50 0 
L 1831 4666 
z
" transform="scale(0.015625)"/>
       <path id="DejaVuSans-63" d="M 3122 3366 
L 3122 2828 
Q 2878 2963 2633 3030 
Q 2388 3097 2138 3097 
Q 1578 3097 1268 2742 
Q 959 2388 959 1747 
Q 959 1106 1268 751 
Q 1578 397 2138 397 
Q 2388 397 2633 464 
Q 2878 531 3122 666 
L 3122 134 
Q 2881 22 2623 -34 
Q 2366 -91 2075 -91 
Q 1284 -91 818 406 
Q 353 903 353 1747 
Q 353 2603 823 3093 
Q 1294 3584 2113 3584 
Q 2378 3584 2631 3529 
Q 2884 3475 3122 3366 
z
" transform="scale(0.015625)"/>
       <path id="DejaVuSans-75" d="M 544 1381 
L 544 3500 
L 1119 3500 
L 1119 1403 
Q 1119 906 1312 657 
Q 1506 409 1894 409 
Q 2359 409 2629 706 
Q 2900 1003 2900 1516 
L 2900 3500 
L 3475 3500 
L 3475 0 
L 2900 0 
L 2900 538 
Q 2691 219 2414 64 
Q 2138 -91 1772 -91 
Q 1169 -91 856 284 
Q 544 659 544 1381 
z
M 1991 3584 
L 1991 3584 
z
" transform="scale(0.015625)"/>
       <path id="DejaVuSans-72" d="M 2631 2963 
Q 2534 3019 2420 3045 
Q 2306 3072 2169 3072 
Q 1681 3072 1420 2755 
Q 1159 2438 1159 1844 
L 1159 0 
L 581 0 
L 581 3500 
L 1159 3500 
L 1159 2956 
Q 1341 3275 1631 3429 
Q 1922 3584 2338 3584 
Q 2397 3584 2469 3576 
Q 2541 3569 2628 3553 
L 2631 2963 
z
" transform="scale(0.015625)"/>
       <path id="DejaVuSans-61" d="M 2194 1759 
Q 1497 1759 1228 1600 
Q 959 1441 959 1056 
Q 959 750 1161 570 
Q 1363 391 1709 391 
Q 2188 391 2477 730 
Q 2766 1069 2766 1631 
L 2766 1759 
L 2194 1759 
z
M 3341 1997 
L 3341 0 
L 2766 0 
L 2766 531 
Q 2569 213 2275 61 
Q 1981 -91 1556 -91 
Q 1019 -91 701 211 
Q 384 513 384 1019 
Q 384 1609 779 1909 
Q 1175 2209 1959 2209 
L 2766 2209 
L 2766 2266 
Q 2766 2663 2505 2880 
Q 2244 3097 1772 3097 
Q 1472 3097 1187 3025 
Q 903 2953 641 2809 
L 641 3341 
Q 956 3463 1253 3523 
Q 1550 3584 1831 3584 
Q 2591 3584 2966 3190 
Q 3341 2797 3341 1997 
z
" transform="scale(0.015625)"/>
       <path id="DejaVuSans-79" d="M 2059 -325 
Q 1816 -950 1584 -1140 
Q 1353 -1331 966 -1331 
L 506 -1331 
L 506 -850 
L 844 -850 
Q 1081 -850 1212 -737 
Q 1344 -625 1503 -206 
L 1606 56 
L 191 3500 
L 800 3500 
L 1894 763 
L 2988 3500 
L 3597 3500 
L 2059 -325 
z
" transform="scale(0.015625)"/>
      </defs>
      <use xlink:href="#DejaVuSans-41"/>
      <use xlink:href="#DejaVuSans-63" x="66.658203"/>
      <use xlink:href="#DejaVuSans-63" x="121.638672"/>
      <use xlink:href="#DejaVuSans-75" x="176.619141"/>
      <use xlink:href="#DejaVuSans-72" x="239.998047"/>
      <use xlink:href="#DejaVuSans-61" x="281.111328"/>
      <use xlink:href="#DejaVuSans-63" x="342.390625"/>
      <use xlink:href="#DejaVuSans-79" x="397.371094"/>
     </g>
    </g>
   </g>
   <g id="line2d_13">
    <path d="M 73.832727 141.641239 
L 83.396815 161.265705 
L 100.925315 121.657071 
L 122.849146 77.072822 
L 154.231425 70.615079 
L 188.515 58.813668 
L 233.751057 55.692542 
L 280.394375 56.698173 
L 339.484211 53.610876 
L 398.487273 53.691854 
" clip-path="url(#pf4c1a762f0)" style="fill: none; stroke: #0000ff; stroke-width: 1.5; stroke-linecap: square"/>
   </g>
   <g id="LineCollection_1">
    <path d="M 73.832727 142.724367 
L 73.832727 140.558112 
" clip-path="url(#pf4c1a762f0)" style="fill: none; stroke: #0000ff"/>
    <path d="M 83.396815 163.288108 
L 83.396815 159.243301 
" clip-path="url(#pf4c1a762f0)" style="fill: none; stroke: #0000ff"/>
    <path d="M 100.925315 123.073928 
L 100.925315 120.240214 
" clip-path="url(#pf4c1a762f0)" style="fill: none; stroke: #0000ff"/>
    <path d="M 122.849146 78.063671 
L 122.849146 76.081974 
" clip-path="url(#pf4c1a762f0)" style="fill: none; stroke: #0000ff"/>
    <path d="M 154.231425 71.405878 
L 154.231425 69.82428 
" clip-path="url(#pf4c1a762f0)" style="fill: none; stroke: #0000ff"/>
    <path d="M 188.515 59.063158 
L 188.515 58.564177 
" clip-path="url(#pf4c1a762f0)" style="fill: none; stroke: #0000ff"/>
    <path d="M 233.751057 55.803561 
L 233.751057 55.581522 
" clip-path="url(#pf4c1a762f0)" style="fill: none; stroke: #0000ff"/>
    <path d="M 280.394375 56.953871 
L 280.394375 56.442475 
" clip-path="url(#pf4c1a762f0)" style="fill: none; stroke: #0000ff"/>
    <path d="M 339.484211 53.653753 
L 339.484211 53.568 
" clip-path="url(#pf4c1a762f0)" style="fill: none; stroke: #0000ff"/>
    <path d="M 398.487273 53.765043 
L 398.487273 53.618665 
" clip-path="url(#pf4c1a762f0)" style="fill: none; stroke: #0000ff"/>
   </g>
   <g id="line2d_14">
    <defs>
     <path id="m3f050270c0" d="M 4 0 
L -4 -0 
" style="stroke: #0000ff"/>
    </defs>
    <g clip-path="url(#pf4c1a762f0)">
     <use xlink:href="#m3f050270c0" x="73.832727" y="142.724367" style="fill: #0000ff; stroke: #0000ff"/>
     <use xlink:href="#m3f050270c0" x="83.396815" y="163.288108" style="fill: #0000ff; stroke: #0000ff"/>
     <use xlink:href="#m3f050270c0" x="100.925315" y="123.073928" style="fill: #0000ff; stroke: #0000ff"/>
     <use xlink:href="#m3f050270c0" x="122.849146" y="78.063671" style="fill: #0000ff; stroke: #0000ff"/>
     <use xlink:href="#m3f050270c0" x="154.231425" y="71.405878" style="fill: #0000ff; stroke: #0000ff"/>
     <use xlink:href="#m3f050270c0" x="188.515" y="59.063158" style="fill: #0000ff; stroke: #0000ff"/>
     <use xlink:href="#m3f050270c0" x="233.751057" y="55.803561" style="fill: #0000ff; stroke: #0000ff"/>
     <use xlink:href="#m3f050270c0" x="280.394375" y="56.953871" style="fill: #0000ff; stroke: #0000ff"/>
     <use xlink:href="#m3f050270c0" x="339.484211" y="53.653753" style="fill: #0000ff; stroke: #0000ff"/>
     <use xlink:href="#m3f050270c0" x="398.487273" y="53.765043" style="fill: #0000ff; stroke: #0000ff"/>
    </g>
   </g>
   <g id="line2d_15">
    <g clip-path="url(#pf4c1a762f0)">
     <use xlink:href="#m3f050270c0" x="73.832727" y="140.558112" style="fill: #0000ff; stroke: #0000ff"/>
     <use xlink:href="#m3f050270c0" x="83.396815" y="159.243301" style="fill: #0000ff; stroke: #0000ff"/>
     <use xlink:href="#m3f050270c0" x="100.925315" y="120.240214" style="fill: #0000ff; stroke: #0000ff"/>
     <use xlink:href="#m3f050270c0" x="122.849146" y="76.081974" style="fill: #0000ff; stroke: #0000ff"/>
     <use xlink:href="#m3f050270c0" x="154.231425" y="69.82428" style="fill: #0000ff; stroke: #0000ff"/>
     <use xlink:href="#m3f050270c0" x="188.515" y="58.564177" style="fill: #0000ff; stroke: #0000ff"/>
     <use xlink:href="#m3f050270c0" x="233.751057" y="55.581522" style="fill: #0000ff; stroke: #0000ff"/>
     <use xlink:href="#m3f050270c0" x="280.394375" y="56.442475" style="fill: #0000ff; stroke: #0000ff"/>
     <use xlink:href="#m3f050270c0" x="339.484211" y="53.568" style="fill: #0000ff; stroke: #0000ff"/>
     <use xlink:href="#m3f050270c0" x="398.487273" y="53.618665" style="fill: #0000ff; stroke: #0000ff"/>
    </g>
   </g>
   <g id="line2d_16">
    <path d="M 73.832727 179.40331 
L 83.396815 97.897402 
L 100.925315 77.168325 
L 122.849146 56.543883 
L 154.231425 57.175404 
L 188.515 56.737467 
L 233.751057 56.737041 
L 280.394375 58.558481 
L 339.484211 57.454129 
L 398.487273 58.172022 
" clip-path="url(#pf4c1a762f0)" style="fill: none; stroke: #008000; stroke-width: 1.5; stroke-linecap: square"/>
   </g>
   <g id="LineCollection_2">
    <path d="M 73.832727 185.183873 
L 73.832727 173.622747 
" clip-path="url(#pf4c1a762f0)" style="fill: none; stroke: #008000"/>
    <path d="M 83.396815 100.852558 
L 83.396815 94.942247 
" clip-path="url(#pf4c1a762f0)" style="fill: none; stroke: #008000"/>
    <path d="M 100.925315 78.285603 
L 100.925315 76.051048 
" clip-path="url(#pf4c1a762f0)" style="fill: none; stroke: #008000"/>
    <path d="M 122.849146 56.956906 
L 122.849146 56.130859 
" clip-path="url(#pf4c1a762f0)" style="fill: none; stroke: #008000"/>
    <path d="M 154.231425 57.482976 
L 154.231425 56.867832 
" clip-path="url(#pf4c1a762f0)" style="fill: none; stroke: #008000"/>
    <path d="M 188.515 56.890567 
L 188.515 56.584367 
" clip-path="url(#pf4c1a762f0)" style="fill: none; stroke: #008000"/>
    <path d="M 233.751057 56.867991 
L 233.751057 56.606091 
" clip-path="url(#pf4c1a762f0)" style="fill: none; stroke: #008000"/>
    <path d="M 280.394375 58.848656 
L 280.394375 58.268306 
" clip-path="url(#pf4c1a762f0)" style="fill: none; stroke: #008000"/>
    <path d="M 339.484211 57.5485 
L 339.484211 57.359758 
" clip-path="url(#pf4c1a762f0)" style="fill: none; stroke: #008000"/>
    <path d="M 398.487273 58.314652 
L 398.487273 58.029392 
" clip-path="url(#pf4c1a762f0)" style="fill: none; stroke: #008000"/>
   </g>
   <g id="line2d_17">
    <defs>
     <path id="m1262603a35" d="M 4 0 
L -4 -0 
" style="stroke: #008000"/>
    </defs>
    <g clip-path="url(#pf4c1a762f0)">
     <use xlink:href="#m1262603a35" x="73.832727" y="185.183873" style="fill: #008000; stroke: #008000"/>
     <use xlink:href="#m1262603a35" x="83.396815" y="100.852558" style="fill: #008000; stroke: #008000"/>
     <use xlink:href="#m1262603a35" x="100.925315" y="78.285603" style="fill: #008000; stroke: #008000"/>
     <use xlink:href="#m1262603a35" x="122.849146" y="56.956906" style="fill: #008000; stroke: #008000"/>
     <use xlink:href="#m1262603a35" x="154.231425" y="57.482976" style="fill: #008000; stroke: #008000"/>
     <use xlink:href="#m1262603a35" x="188.515" y="56.890567" style="fill: #008000; stroke: #008000"/>
     <use xlink:href="#m1262603a35" x="233.751057" y="56.867991" style="fill: #008000; stroke: #008000"/>
     <use xlink:href="#m1262603a35" x="280.394375" y="58.848656" style="fill: #008000; stroke: #008000"/>
     <use xlink:href="#m1262603a35" x="339.484211" y="57.5485" style="fill: #008000; stroke: #008000"/>
     <use xlink:href="#m1262603a35" x="398.487273" y="58.314652" style="fill: #008000; stroke: #008000"/>
    </g>
   </g>
   <g id="line2d_18">
    <g clip-path="url(#pf4c1a762f0)">
     <use xlink:href="#m1262603a35" x="73.832727" y="173.622747" style="fill: #008000; stroke: #008000"/>
     <use xlink:href="#m1262603a35" x="83.396815" y="94.942247" style="fill: #008000; stroke: #008000"/>
     <use xlink:href="#m1262603a35" x="100.925315" y="76.051048" style="fill: #008000; stroke: #008000"/>
     <use xlink:href="#m1262603a35" x="122.849146" y="56.130859" style="fill: #008000; stroke: #008000"/>
     <use xlink:href="#m1262603a35" x="154.231425" y="56.867832" style="fill: #008000; stroke: #008000"/>
     <use xlink:href="#m1262603a35" x="188.515" y="56.584367" style="fill: #008000; stroke: #008000"/>
     <use xlink:href="#m1262603a35" x="233.751057" y="56.606091" style="fill: #008000; stroke: #008000"/>
     <use xlink:href="#m1262603a35" x="280.394375" y="58.268306" style="fill: #008000; stroke: #008000"/>
     <use xlink:href="#m1262603a35" x="339.484211" y="57.359758" style="fill: #008000; stroke: #008000"/>
     <use xlink:href="#m1262603a35" x="398.487273" y="58.029392" style="fill: #008000; stroke: #008000"/>
    </g>
   </g>
   <g id="line2d_19">
    <path d="M 73.832727 294.314645 
L 83.396815 185.953977 
L 100.925315 127.398767 
L 122.849146 118.452909 
L 154.231425 98.139767 
L 188.515 101.228862 
L 233.751057 80.4185 
L 280.394375 103.199458 
L 339.484211 87.592645 
L 398.487273 98.522962 
" clip-path="url(#pf4c1a762f0)" style="fill: none; stroke: #ff0000; stroke-width: 1.5; stroke-linecap: square"/>
   </g>
   <g id="LineCollection_3">
    <path d="M 73.832727 295.488 
L 73.832727 293.14129 
" clip-path="url(#pf4c1a762f0)" style="fill: none; stroke: #ff0000"/>
    <path d="M 83.396815 188.245132 
L 83.396815 183.662822 
" clip-path="url(#pf4c1a762f0)" style="fill: none; stroke: #ff0000"/>
    <path d="M 100.925315 129.173995 
L 100.925315 125.623538 
" clip-path="url(#pf4c1a762f0)" style="fill: none; stroke: #ff0000"/>
    <path d="M 122.849146 119.429384 
L 122.849146 117.476433 
" clip-path="url(#pf4c1a762f0)" style="fill: none; stroke: #ff0000"/>
    <path d="M 154.231425 99.007963 
L 154.231425 97.271572 
" clip-path="url(#pf4c1a762f0)" style="fill: none; stroke: #ff0000"/>
    <path d="M 188.515 101.933743 
L 188.515 100.523981 
" clip-path="url(#pf4c1a762f0)" style="fill: none; stroke: #ff0000"/>
    <path d="M 233.751057 80.854635 
L 233.751057 79.982364 
" clip-path="url(#pf4c1a762f0)" style="fill: none; stroke: #ff0000"/>
    <path d="M 280.394375 103.957863 
L 280.394375 102.441054 
" clip-path="url(#pf4c1a762f0)" style="fill: none; stroke: #ff0000"/>
    <path d="M 339.484211 88.218816 
L 339.484211 86.966474 
" clip-path="url(#pf4c1a762f0)" style="fill: none; stroke: #ff0000"/>
    <path d="M 398.487273 99.436816 
L 398.487273 97.609108 
" clip-path="url(#pf4c1a762f0)" style="fill: none; stroke: #ff0000"/>
   </g>
   <g id="line2d_20">
    <defs>
     <path id="m75b40c6f22" d="M 4 0 
L -4 -0 
" style="stroke: #ff0000"/>
    </defs>
    <g clip-path="url(#pf4c1a762f0)">
     <use xlink:href="#m75b40c6f22" x="73.832727" y="295.488" style="fill: #ff0000; stroke: #ff0000"/>
     <use xlink:href="#m75b40c6f22" x="83.396815" y="188.245132" style="fill: #ff0000; stroke: #ff0000"/>
     <use xlink:href="#m75b40c6f22" x="100.925315" y="129.173995" style="fill: #ff0000; stroke: #ff0000"/>
     <use xlink:href="#m75b40c6f22" x="122.849146" y="119.429384" style="fill: #ff0000; stroke: #ff0000"/>
     <use xlink:href="#m75b40c6f22" x="154.231425" y="99.007963" style="fill: #ff0000; stroke: #ff0000"/>
     <use xlink:href="#m75b40c6f22" x="188.515" y="101.933743" style="fill: #ff0000; stroke: #ff0000"/>
     <use xlink:href="#m75b40c6f22" x="233.751057" y="80.854635" style="fill: #ff0000; stroke: #ff0000"/>
     <use xlink:href="#m75b40c6f22" x="280.394375" y="103.957863" style="fill: #ff0000; stroke: #ff0000"/>
     <use xlink:href="#m75b40c6f22" x="339.484211" y="88.218816" style="fill: #ff0000; stroke: #ff0000"/>
     <use xlink:href="#m75b40c6f22" x="398.487273" y="99.436816" style="fill: #ff0000; stroke: #ff0000"/>
    </g>
   </g>
   <g id="line2d_21">
    <g clip-path="url(#pf4c1a762f0)">
     <use xlink:href="#m75b40c6f22" x="73.832727" y="293.14129" style="fill: #ff0000; stroke: #ff0000"/>
     <use xlink:href="#m75b40c6f22" x="83.396815" y="183.662822" style="fill: #ff0000; stroke: #ff0000"/>
     <use xlink:href="#m75b40c6f22" x="100.925315" y="125.623538" style="fill: #ff0000; stroke: #ff0000"/>
     <use xlink:href="#m75b40c6f22" x="122.849146" y="117.476433" style="fill: #ff0000; stroke: #ff0000"/>
     <use xlink:href="#m75b40c6f22" x="154.231425" y="97.271572" style="fill: #ff0000; stroke: #ff0000"/>
     <use xlink:href="#m75b40c6f22" x="188.515" y="100.523981" style="fill: #ff0000; stroke: #ff0000"/>
     <use xlink:href="#m75b40c6f22" x="233.751057" y="79.982364" style="fill: #ff0000; stroke: #ff0000"/>
     <use xlink:href="#m75b40c6f22" x="280.394375" y="102.441054" style="fill: #ff0000; stroke: #ff0000"/>
     <use xlink:href="#m75b40c6f22" x="339.484211" y="86.966474" style="fill: #ff0000; stroke: #ff0000"/>
     <use xlink:href="#m75b40c6f22" x="398.487273" y="97.609108" style="fill: #ff0000; stroke: #ff0000"/>
    </g>
   </g>
   <g id="line2d_22">
    <defs>
     <path id="m90b610baeb" d="M 0 2 
C 0.530406 2 1.03916 1.789267 1.414214 1.414214 
C 1.789267 1.03916 2 0.530406 2 0 
C 2 -0.530406 1.789267 -1.03916 1.414214 -1.414214 
C 1.03916 -1.789267 0.530406 -2 0 -2 
C -0.530406 -2 -1.03916 -1.789267 -1.414214 -1.414214 
C -1.789267 -1.03916 -2 -0.530406 -2 0 
C -2 0.530406 -1.789267 1.03916 -1.414214 1.414214 
C -1.03916 1.789267 -0.530406 2 0 2 
z
" style="stroke: #0000ff"/>
    </defs>
    <g clip-path="url(#pf4c1a762f0)">
     <use xlink:href="#m90b610baeb" x="73.832727" y="141.641239" style="fill: #ffffff; stroke: #0000ff"/>
     <use xlink:href="#m90b610baeb" x="83.396815" y="161.265705" style="fill: #ffffff; stroke: #0000ff"/>
     <use xlink:href="#m90b610baeb" x="100.925315" y="121.657071" style="fill: #ffffff; stroke: #0000ff"/>
     <use xlink:href="#m90b610baeb" x="122.849146" y="77.072822" style="fill: #ffffff; stroke: #0000ff"/>
     <use xlink:href="#m90b610baeb" x="154.231425" y="70.615079" style="fill: #ffffff; stroke: #0000ff"/>
     <use xlink:href="#m90b610baeb" x="188.515" y="58.813668" style="fill: #ffffff; stroke: #0000ff"/>
     <use xlink:href="#m90b610baeb" x="233.751057" y="55.692542" style="fill: #ffffff; stroke: #0000ff"/>
     <use xlink:href="#m90b610baeb" x="280.394375" y="56.698173" style="fill: #ffffff; stroke: #0000ff"/>
     <use xlink:href="#m90b610baeb" x="339.484211" y="53.610876" style="fill: #ffffff; stroke: #0000ff"/>
     <use xlink:href="#m90b610baeb" x="398.487273" y="53.691854" style="fill: #ffffff; stroke: #0000ff"/>
    </g>
   </g>
   <g id="line2d_23">
    <defs>
     <path id="m89b049cf98" d="M -2 2 
L 2 2 
L 2 -2 
L -2 -2 
z
" style="stroke: #008000; stroke-linejoin: miter"/>
    </defs>
    <g clip-path="url(#pf4c1a762f0)">
     <use xlink:href="#m89b049cf98" x="73.832727" y="179.40331" style="fill: #ffffff; stroke: #008000; stroke-linejoin: miter"/>
     <use xlink:href="#m89b049cf98" x="83.396815" y="97.897402" style="fill: #ffffff; stroke: #008000; stroke-linejoin: miter"/>
     <use xlink:href="#m89b049cf98" x="100.925315" y="77.168325" style="fill: #ffffff; stroke: #008000; stroke-linejoin: miter"/>
     <use xlink:href="#m89b049cf98" x="122.849146" y="56.543883" style="fill: #ffffff; stroke: #008000; stroke-linejoin: miter"/>
     <use xlink:href="#m89b049cf98" x="154.231425" y="57.175404" style="fill: #ffffff; stroke: #008000; stroke-linejoin: miter"/>
     <use xlink:href="#m89b049cf98" x="188.515" y="56.737467" style="fill: #ffffff; stroke: #008000; stroke-linejoin: miter"/>
     <use xlink:href="#m89b049cf98" x="233.751057" y="56.737041" style="fill: #ffffff; stroke: #008000; stroke-linejoin: miter"/>
     <use xlink:href="#m89b049cf98" x="280.394375" y="58.558481" style="fill: #ffffff; stroke: #008000; stroke-linejoin: miter"/>
     <use xlink:href="#m89b049cf98" x="339.484211" y="57.454129" style="fill: #ffffff; stroke: #008000; stroke-linejoin: miter"/>
     <use xlink:href="#m89b049cf98" x="398.487273" y="58.172022" style="fill: #ffffff; stroke: #008000; stroke-linejoin: miter"/>
    </g>
   </g>
   <g id="line2d_24">
    <defs>
     <path id="mfd838d81bc" d="M -0 2 
L 2 -2 
L -2 -2 
z
" style="stroke: #ff0000; stroke-linejoin: miter"/>
    </defs>
    <g clip-path="url(#pf4c1a762f0)">
     <use xlink:href="#mfd838d81bc" x="73.832727" y="294.314645" style="fill: #ffffff; stroke: #ff0000; stroke-linejoin: miter"/>
     <use xlink:href="#mfd838d81bc" x="83.396815" y="185.953977" style="fill: #ffffff; stroke: #ff0000; stroke-linejoin: miter"/>
     <use xlink:href="#mfd838d81bc" x="100.925315" y="127.398767" style="fill: #ffffff; stroke: #ff0000; stroke-linejoin: miter"/>
     <use xlink:href="#mfd838d81bc" x="122.849146" y="118.452909" style="fill: #ffffff; stroke: #ff0000; stroke-linejoin: miter"/>
     <use xlink:href="#mfd838d81bc" x="154.231425" y="98.139767" style="fill: #ffffff; stroke: #ff0000; stroke-linejoin: miter"/>
     <use xlink:href="#mfd838d81bc" x="188.515" y="101.228862" style="fill: #ffffff; stroke: #ff0000; stroke-linejoin: miter"/>
     <use xlink:href="#mfd838d81bc" x="233.751057" y="80.4185" style="fill: #ffffff; stroke: #ff0000; stroke-linejoin: miter"/>
     <use xlink:href="#mfd838d81bc" x="280.394375" y="103.199458" style="fill: #ffffff; stroke: #ff0000; stroke-linejoin: miter"/>
     <use xlink:href="#mfd838d81bc" x="339.484211" y="87.592645" style="fill: #ffffff; stroke: #ff0000; stroke-linejoin: miter"/>
     <use xlink:href="#mfd838d81bc" x="398.487273" y="98.522962" style="fill: #ffffff; stroke: #ff0000; stroke-linejoin: miter"/>
    </g>
   </g>
   <g id="patch_3">
    <path d="M 57.6 307.584 
L 57.6 41.472 
" style="fill: none; stroke: #000000; stroke-width: 0.8; stroke-linejoin: miter; stroke-linecap: square"/>
   </g>
   <g id="patch_4">
    <path d="M 414.72 307.584 
L 414.72 41.472 
" style="fill: none; stroke: #000000; stroke-width: 0.8; stroke-linejoin: miter; stroke-linecap: square"/>
   </g>
   <g id="patch_5">
    <path d="M 57.6 307.584 
L 414.72 307.584 
" style="fill: none; stroke: #000000; stroke-width: 0.8; stroke-linejoin: miter; stroke-linecap: square"/>
   </g>
   <g id="patch_6">
    <path d="M 57.6 41.472 
L 414.72 41.472 
" style="fill: none; stroke: #000000; stroke-width: 0.8; stroke-linejoin: miter; stroke-linecap: square"/>
   </g>
   <g id="legend_1">
    <g id="patch_7">
     <path d="M 311.665313 302.584 
L 407.72 302.584 
Q 409.72 302.584 409.72 300.584 
L 409.72 257.549625 
Q 409.72 255.549625 407.72 255.549625 
L 311.665313 255.549625 
Q 309.665313 255.549625 309.665313 257.549625 
L 309.665313 300.584 
Q 309.665313 302.584 311.665313 302.584 
z
" style="fill: #ffffff; opacity: 0.8; stroke: #cccccc; stroke-linejoin: miter"/>
    </g>
    <g id="LineCollection_4">
     <path d="M 323.665313 268.648062 
L 323.665313 258.648062 
" style="fill: none; stroke: #0000ff"/>
    </g>
    <g id="line2d_25">
     <g>
      <use xlink:href="#m3f050270c0" x="323.665313" y="268.648062" style="fill: #0000ff; stroke: #0000ff"/>
     </g>
    </g>
    <g id="line2d_26">
     <g>
      <use xlink:href="#m3f050270c0" x="323.665313" y="258.648062" style="fill: #0000ff; stroke: #0000ff"/>
     </g>
    </g>
    <g id="line2d_27"/>
    <g id="line2d_28">
     <g>
      <use xlink:href="#m90b610baeb" x="323.665313" y="263.648062" style="fill: #ffffff; stroke: #0000ff"/>
     </g>
    </g>
    <g id="text_15">
     <!-- (i)validation -->
     <g transform="translate(341.665313 267.148062) scale(0.1 -0.1)">
      <defs>
       <path id="DejaVuSans-28" d="M 1984 4856 
Q 1566 4138 1362 3434 
Q 1159 2731 1159 2009 
Q 1159 1288 1364 580 
Q 1569 -128 1984 -844 
L 1484 -844 
Q 1016 -109 783 600 
Q 550 1309 550 2009 
Q 550 2706 781 3412 
Q 1013 4119 1484 4856 
L 1984 4856 
z
" transform="scale(0.015625)"/>
       <path id="DejaVuSans-69" d="M 603 3500 
L 1178 3500 
L 1178 0 
L 603 0 
L 603 3500 
z
M 603 4863 
L 1178 4863 
L 1178 4134 
L 603 4134 
L 603 4863 
z
" transform="scale(0.015625)"/>
       <path id="DejaVuSans-29" d="M 513 4856 
L 1013 4856 
Q 1481 4119 1714 3412 
Q 1947 2706 1947 2009 
Q 1947 1309 1714 600 
Q 1481 -109 1013 -844 
L 513 -844 
Q 928 -128 1133 580 
Q 1338 1288 1338 2009 
Q 1338 2731 1133 3434 
Q 928 4138 513 4856 
z
" transform="scale(0.015625)"/>
       <path id="DejaVuSans-76" d="M 191 3500 
L 800 3500 
L 1894 563 
L 2988 3500 
L 3597 3500 
L 2284 0 
L 1503 0 
L 191 3500 
z
" transform="scale(0.015625)"/>
       <path id="DejaVuSans-6c" d="M 603 4863 
L 1178 4863 
L 1178 0 
L 603 0 
L 603 4863 
z
" transform="scale(0.015625)"/>
       <path id="DejaVuSans-64" d="M 2906 2969 
L 2906 4863 
L 3481 4863 
L 3481 0 
L 2906 0 
L 2906 525 
Q 2725 213 2448 61 
Q 2172 -91 1784 -91 
Q 1150 -91 751 415 
Q 353 922 353 1747 
Q 353 2572 751 3078 
Q 1150 3584 1784 3584 
Q 2172 3584 2448 3432 
Q 2725 3281 2906 2969 
z
M 947 1747 
Q 947 1113 1208 752 
Q 1469 391 1925 391 
Q 2381 391 2643 752 
Q 2906 1113 2906 1747 
Q 2906 2381 2643 2742 
Q 2381 3103 1925 3103 
Q 1469 3103 1208 2742 
Q 947 2381 947 1747 
z
" transform="scale(0.015625)"/>
       <path id="DejaVuSans-74" d="M 1172 4494 
L 1172 3500 
L 2356 3500 
L 2356 3053 
L 1172 3053 
L 1172 1153 
Q 1172 725 1289 603 
Q 1406 481 1766 481 
L 2356 481 
L 2356 0 
L 1766 0 
Q 1100 0 847 248 
Q 594 497 594 1153 
L 594 3053 
L 172 3053 
L 172 3500 
L 594 3500 
L 594 4494 
L 1172 4494 
z
" transform="scale(0.015625)"/>
       <path id="DejaVuSans-6f" d="M 1959 3097 
Q 1497 3097 1228 2736 
Q 959 2375 959 1747 
Q 959 1119 1226 758 
Q 1494 397 1959 397 
Q 2419 397 2687 759 
Q 2956 1122 2956 1747 
Q 2956 2369 2687 2733 
Q 2419 3097 1959 3097 
z
M 1959 3584 
Q 2709 3584 3137 3096 
Q 3566 2609 3566 1747 
Q 3566 888 3137 398 
Q 2709 -91 1959 -91 
Q 1206 -91 779 398 
Q 353 888 353 1747 
Q 353 2609 779 3096 
Q 1206 3584 1959 3584 
z
" transform="scale(0.015625)"/>
       <path id="DejaVuSans-6e" d="M 3513 2113 
L 3513 0 
L 2938 0 
L 2938 2094 
Q 2938 2591 2744 2837 
Q 2550 3084 2163 3084 
Q 1697 3084 1428 2787 
Q 1159 2491 1159 1978 
L 1159 0 
L 581 0 
L 581 3500 
L 1159 3500 
L 1159 2956 
Q 1366 3272 1645 3428 
Q 1925 3584 2291 3584 
Q 2894 3584 3203 3211 
Q 3513 2838 3513 2113 
z
" transform="scale(0.015625)"/>
      </defs>
      <use xlink:href="#DejaVuSans-28"/>
      <use xlink:href="#DejaVuSans-69" x="39.013672"/>
      <use xlink:href="#DejaVuSans-29" x="66.796875"/>
      <use xlink:href="#DejaVuSans-76" x="105.810547"/>
      <use xlink:href="#DejaVuSans-61" x="164.990234"/>
      <use xlink:href="#DejaVuSans-6c" x="226.269531"/>
      <use xlink:href="#DejaVuSans-69" x="254.052734"/>
      <use xlink:href="#DejaVuSans-64" x="281.835938"/>
      <use xlink:href="#DejaVuSans-61" x="345.3125"/>
      <use xlink:href="#DejaVuSans-74" x="406.591797"/>
      <use xlink:href="#DejaVuSans-69" x="445.800781"/>
      <use xlink:href="#DejaVuSans-6f" x="473.583984"/>
      <use xlink:href="#DejaVuSans-6e" x="534.765625"/>
     </g>
    </g>
    <g id="LineCollection_5">
     <path d="M 323.665313 283.326188 
L 323.665313 273.326188 
" style="fill: none; stroke: #008000"/>
    </g>
    <g id="line2d_29">
     <g>
      <use xlink:href="#m1262603a35" x="323.665313" y="283.326188" style="fill: #008000; stroke: #008000"/>
     </g>
    </g>
    <g id="line2d_30">
     <g>
      <use xlink:href="#m1262603a35" x="323.665313" y="273.326188" style="fill: #008000; stroke: #008000"/>
     </g>
    </g>
    <g id="line2d_31"/>
    <g id="line2d_32">
     <g>
      <use xlink:href="#m89b049cf98" x="323.665313" y="278.326188" style="fill: #ffffff; stroke: #008000; stroke-linejoin: miter"/>
     </g>
    </g>
    <g id="text_16">
     <!-- (ii)validation -->
     <g transform="translate(341.665313 281.826188) scale(0.1 -0.1)">
      <use xlink:href="#DejaVuSans-28"/>
      <use xlink:href="#DejaVuSans-69" x="39.013672"/>
      <use xlink:href="#DejaVuSans-69" x="66.796875"/>
      <use xlink:href="#DejaVuSans-29" x="94.580078"/>
      <use xlink:href="#DejaVuSans-76" x="133.59375"/>
      <use xlink:href="#DejaVuSans-61" x="192.773438"/>
      <use xlink:href="#DejaVuSans-6c" x="254.052734"/>
      <use xlink:href="#DejaVuSans-69" x="281.835938"/>
      <use xlink:href="#DejaVuSans-64" x="309.619141"/>
      <use xlink:href="#DejaVuSans-61" x="373.095703"/>
      <use xlink:href="#DejaVuSans-74" x="434.375"/>
      <use xlink:href="#DejaVuSans-69" x="473.583984"/>
      <use xlink:href="#DejaVuSans-6f" x="501.367188"/>
      <use xlink:href="#DejaVuSans-6e" x="562.548828"/>
     </g>
    </g>
    <g id="LineCollection_6">
     <path d="M 323.665313 298.004312 
L 323.665313 288.004312 
" style="fill: none; stroke: #ff0000"/>
    </g>
    <g id="line2d_33">
     <g>
      <use xlink:href="#m75b40c6f22" x="323.665313" y="298.004312" style="fill: #ff0000; stroke: #ff0000"/>
     </g>
    </g>
    <g id="line2d_34">
     <g>
      <use xlink:href="#m75b40c6f22" x="323.665313" y="288.004312" style="fill: #ff0000; stroke: #ff0000"/>
     </g>
    </g>
    <g id="line2d_35"/>
    <g id="line2d_36">
     <g>
      <use xlink:href="#mfd838d81bc" x="323.665313" y="293.004312" style="fill: #ffffff; stroke: #ff0000; stroke-linejoin: miter"/>
     </g>
    </g>
    <g id="text_17">
     <!-- (iii)graphene -->
     <g transform="translate(341.665313 296.504312) scale(0.1 -0.1)">
      <defs>
       <path id="DejaVuSans-67" d="M 2906 1791 
Q 2906 2416 2648 2759 
Q 2391 3103 1925 3103 
Q 1463 3103 1205 2759 
Q 947 2416 947 1791 
Q 947 1169 1205 825 
Q 1463 481 1925 481 
Q 2391 481 2648 825 
Q 2906 1169 2906 1791 
z
M 3481 434 
Q 3481 -459 3084 -895 
Q 2688 -1331 1869 -1331 
Q 1566 -1331 1297 -1286 
Q 1028 -1241 775 -1147 
L 775 -588 
Q 1028 -725 1275 -790 
Q 1522 -856 1778 -856 
Q 2344 -856 2625 -561 
Q 2906 -266 2906 331 
L 2906 616 
Q 2728 306 2450 153 
Q 2172 0 1784 0 
Q 1141 0 747 490 
Q 353 981 353 1791 
Q 353 2603 747 3093 
Q 1141 3584 1784 3584 
Q 2172 3584 2450 3431 
Q 2728 3278 2906 2969 
L 2906 3500 
L 3481 3500 
L 3481 434 
z
" transform="scale(0.015625)"/>
       <path id="DejaVuSans-70" d="M 1159 525 
L 1159 -1331 
L 581 -1331 
L 581 3500 
L 1159 3500 
L 1159 2969 
Q 1341 3281 1617 3432 
Q 1894 3584 2278 3584 
Q 2916 3584 3314 3078 
Q 3713 2572 3713 1747 
Q 3713 922 3314 415 
Q 2916 -91 2278 -91 
Q 1894 -91 1617 61 
Q 1341 213 1159 525 
z
M 3116 1747 
Q 3116 2381 2855 2742 
Q 2594 3103 2138 3103 
Q 1681 3103 1420 2742 
Q 1159 2381 1159 1747 
Q 1159 1113 1420 752 
Q 1681 391 2138 391 
Q 2594 391 2855 752 
Q 3116 1113 3116 1747 
z
" transform="scale(0.015625)"/>
       <path id="DejaVuSans-68" d="M 3513 2113 
L 3513 0 
L 2938 0 
L 2938 2094 
Q 2938 2591 2744 2837 
Q 2550 3084 2163 3084 
Q 1697 3084 1428 2787 
Q 1159 2491 1159 1978 
L 1159 0 
L 581 0 
L 581 4863 
L 1159 4863 
L 1159 2956 
Q 1366 3272 1645 3428 
Q 1925 3584 2291 3584 
Q 2894 3584 3203 3211 
Q 3513 2838 3513 2113 
z
" transform="scale(0.015625)"/>
       <path id="DejaVuSans-65" d="M 3597 1894 
L 3597 1613 
L 953 1613 
Q 991 1019 1311 708 
Q 1631 397 2203 397 
Q 2534 397 2845 478 
Q 3156 559 3463 722 
L 3463 178 
Q 3153 47 2828 -22 
Q 2503 -91 2169 -91 
Q 1331 -91 842 396 
Q 353 884 353 1716 
Q 353 2575 817 3079 
Q 1281 3584 2069 3584 
Q 2775 3584 3186 3129 
Q 3597 2675 3597 1894 
z
M 3022 2063 
Q 3016 2534 2758 2815 
Q 2500 3097 2075 3097 
Q 1594 3097 1305 2825 
Q 1016 2553 972 2059 
L 3022 2063 
z
" transform="scale(0.015625)"/>
      </defs>
      <use xlink:href="#DejaVuSans-28"/>
      <use xlink:href="#DejaVuSans-69" x="39.013672"/>
      <use xlink:href="#DejaVuSans-69" x="66.796875"/>
      <use xlink:href="#DejaVuSans-69" x="94.580078"/>
      <use xlink:href="#DejaVuSans-29" x="122.363281"/>
      <use xlink:href="#DejaVuSans-67" x="161.376953"/>
      <use xlink:href="#DejaVuSans-72" x="224.853516"/>
      <use xlink:href="#DejaVuSans-61" x="265.966797"/>
      <use xlink:href="#DejaVuSans-70" x="327.246094"/>
      <use xlink:href="#DejaVuSans-68" x="390.722656"/>
      <use xlink:href="#DejaVuSans-65" x="454.101562"/>
      <use xlink:href="#DejaVuSans-6e" x="515.625"/>
      <use xlink:href="#DejaVuSans-65" x="579.003906"/>
     </g>
    </g>
   </g>
  </g>
 </g>
 <defs>
  <clipPath id="pf4c1a762f0">
   <rect x="57.6" y="41.472" width="357.12" height="266.112"/>
  </clipPath>
 </defs>
</svg>
