<?xml version="1.0" encoding="utf-8" standalone="no"?>
<!DOCTYPE svg PUBLIC "-//W3C//DTD SVG 1.1//EN"
  "http://www.w3.org/Graphics/SVG/1.1/DTD/svg11.dtd">
<svg xmlns:xlink="http://www.w3.org/1999/xlink" width="460.8pt" height="345.6pt" viewBox="0 0 460.8 345.6" xmlns="http://www.w3.org/2000/svg" version="1.1">
 <metadata>
  <rdf:RDF xmlns:dc="http://purl.org/dc/elements/1.1/" xmlns:cc="http://creativecommons.org/ns#" xmlns:rdf="http://www.w3.org/1999/02/22-rdf-syntax-ns#">
   <cc:Work>
    <dc:type rdf:resource="http://purl.org/dc/dcmitype/StillImage"/>
    <dc:date>2023-07-28T07:39:00.530709</dc:date>
    <dc:format>image/svg+xml</dc:format>
    <dc:creator>
     <cc:Agent>
      <dc:title>Matplotlib v3.7.1, https://matplotlib.org/</dc:title>
     </cc:Agent>
    </dc:creator>
   </cc:Work>
  </rdf:RDF>
 </metadata>
 <defs>
  <style type="text/css">*{stroke-linejoin: round; stroke-linecap: butt}</style>
 </defs>
 <g id="figure_1">
  <g id="patch_1">
   <path d="M 0 345.6 
L 460.8 345.6 
L 460.8 0 
L 0 0 
z
" style="fill: #ffffff"/>
  </g>
  <g id="axes_1">
   <g id="patch_2">
    <path d="M 57.6 307.584 
L 414.72 307.584 
L 414.72 41.472 
L 57.6 41.472 
z
" style="fill: #ffffff"/>
   </g>
   <g id="matplotlib.axis_1">
    <g id="xtick_1">
     <g id="line2d_1">
      <defs>
       <path id="mdcb4ff6097" d="M 0 0 
L 0 3.5 
" style="stroke: #000000; stroke-width: 0.8"/>
      </defs>
      <g>
       <use xlink:href="#mdcb4ff6097" x="88.571013" y="307.584" style="stroke: #000000; stroke-width: 0.8"/>
      </g>
     </g>
     <g id="text_1">
      <!-- 500 -->
      <g transform="translate(79.027263 322.182437) scale(0.1 -0.1)">
       <defs>
        <path id="DejaVuSans-35" d="M 691 4666 
L 3169 4666 
L 3169 4134 
L 1269 4134 
L 1269 2991 
Q 1406 3038 1543 3061 
Q 1681 3084 1819 3084 
Q 2600 3084 3056 2656 
Q 3513 2228 3513 1497 
Q 3513 744 3044 326 
Q 2575 -91 1722 -91 
Q 1428 -91 1123 -41 
Q 819 9 494 109 
L 494 744 
Q 775 591 1075 516 
Q 1375 441 1709 441 
Q 2250 441 2565 725 
Q 2881 1009 2881 1497 
Q 2881 1984 2565 2268 
Q 2250 2553 1709 2553 
Q 1456 2553 1204 2497 
Q 953 2441 691 2322 
L 691 4666 
z
" transform="scale(0.015625)"/>
        <path id="DejaVuSans-30" d="M 2034 4250 
Q 1547 4250 1301 3770 
Q 1056 3291 1056 2328 
Q 1056 1369 1301 889 
Q 1547 409 2034 409 
Q 2525 409 2770 889 
Q 3016 1369 3016 2328 
Q 3016 3291 2770 3770 
Q 2525 4250 2034 4250 
z
M 2034 4750 
Q 2819 4750 3233 4129 
Q 3647 3509 3647 2328 
Q 3647 1150 3233 529 
Q 2819 -91 2034 -91 
Q 1250 -91 836 529 
Q 422 1150 422 2328 
Q 422 3509 836 4129 
Q 1250 4750 2034 4750 
z
" transform="scale(0.015625)"/>
       </defs>
       <use xlink:href="#DejaVuSans-35"/>
       <use xlink:href="#DejaVuSans-30" x="63.623047"/>
       <use xlink:href="#DejaVuSans-30" x="127.246094"/>
      </g>
     </g>
    </g>
    <g id="xtick_2">
     <g id="line2d_2">
      <g>
       <use xlink:href="#mdcb4ff6097" x="140.103481" y="307.584" style="stroke: #000000; stroke-width: 0.8"/>
      </g>
     </g>
     <g id="text_2">
      <!-- 1000 -->
      <g transform="translate(127.378481 322.182437) scale(0.1 -0.1)">
       <defs>
        <path id="DejaVuSans-31" d="M 794 531 
L 1825 531 
L 1825 4091 
L 703 3866 
L 703 4441 
L 1819 4666 
L 2450 4666 
L 2450 531 
L 3481 531 
L 3481 0 
L 794 0 
L 794 531 
z
" transform="scale(0.015625)"/>
       </defs>
       <use xlink:href="#DejaVuSans-31"/>
       <use xlink:href="#DejaVuSans-30" x="63.623047"/>
       <use xlink:href="#DejaVuSans-30" x="127.246094"/>
       <use xlink:href="#DejaVuSans-30" x="190.869141"/>
      </g>
     </g>
    </g>
    <g id="xtick_3">
     <g id="line2d_3">
      <g>
       <use xlink:href="#mdcb4ff6097" x="191.635948" y="307.584" style="stroke: #000000; stroke-width: 0.8"/>
      </g>
     </g>
     <g id="text_3">
      <!-- 1500 -->
      <g transform="translate(178.910948 322.182437) scale(0.1 -0.1)">
       <use xlink:href="#DejaVuSans-31"/>
       <use xlink:href="#DejaVuSans-35" x="63.623047"/>
       <use xlink:href="#DejaVuSans-30" x="127.246094"/>
       <use xlink:href="#DejaVuSans-30" x="190.869141"/>
      </g>
     </g>
    </g>
    <g id="xtick_4">
     <g id="line2d_4">
      <g>
       <use xlink:href="#mdcb4ff6097" x="243.168416" y="307.584" style="stroke: #000000; stroke-width: 0.8"/>
      </g>
     </g>
     <g id="text_4">
      <!-- 2000 -->
      <g transform="translate(230.443416 322.182437) scale(0.1 -0.1)">
       <defs>
        <path id="DejaVuSans-32" d="M 1228 531 
L 3431 531 
L 3431 0 
L 469 0 
L 469 531 
Q 828 903 1448 1529 
Q 2069 2156 2228 2338 
Q 2531 2678 2651 2914 
Q 2772 3150 2772 3378 
Q 2772 3750 2511 3984 
Q 2250 4219 1831 4219 
Q 1534 4219 1204 4116 
Q 875 4013 500 3803 
L 500 4441 
Q 881 4594 1212 4672 
Q 1544 4750 1819 4750 
Q 2544 4750 2975 4387 
Q 3406 4025 3406 3419 
Q 3406 3131 3298 2873 
Q 3191 2616 2906 2266 
Q 2828 2175 2409 1742 
Q 1991 1309 1228 531 
z
" transform="scale(0.015625)"/>
       </defs>
       <use xlink:href="#DejaVuSans-32"/>
       <use xlink:href="#DejaVuSans-30" x="63.623047"/>
       <use xlink:href="#DejaVuSans-30" x="127.246094"/>
       <use xlink:href="#DejaVuSans-30" x="190.869141"/>
      </g>
     </g>
    </g>
    <g id="xtick_5">
     <g id="line2d_5">
      <g>
       <use xlink:href="#mdcb4ff6097" x="294.700883" y="307.584" style="stroke: #000000; stroke-width: 0.8"/>
      </g>
     </g>
     <g id="text_5">
      <!-- 2500 -->
      <g transform="translate(281.975883 322.182437) scale(0.1 -0.1)">
       <use xlink:href="#DejaVuSans-32"/>
       <use xlink:href="#DejaVuSans-35" x="63.623047"/>
       <use xlink:href="#DejaVuSans-30" x="127.246094"/>
       <use xlink:href="#DejaVuSans-30" x="190.869141"/>
      </g>
     </g>
    </g>
    <g id="xtick_6">
     <g id="line2d_6">
      <g>
       <use xlink:href="#mdcb4ff6097" x="346.233351" y="307.584" style="stroke: #000000; stroke-width: 0.8"/>
      </g>
     </g>
     <g id="text_6">
      <!-- 3000 -->
      <g transform="translate(333.508351 322.182437) scale(0.1 -0.1)">
       <defs>
        <path id="DejaVuSans-33" d="M 2597 2516 
Q 3050 2419 3304 2112 
Q 3559 1806 3559 1356 
Q 3559 666 3084 287 
Q 2609 -91 1734 -91 
Q 1441 -91 1130 -33 
Q 819 25 488 141 
L 488 750 
Q 750 597 1062 519 
Q 1375 441 1716 441 
Q 2309 441 2620 675 
Q 2931 909 2931 1356 
Q 2931 1769 2642 2001 
Q 2353 2234 1838 2234 
L 1294 2234 
L 1294 2753 
L 1863 2753 
Q 2328 2753 2575 2939 
Q 2822 3125 2822 3475 
Q 2822 3834 2567 4026 
Q 2313 4219 1838 4219 
Q 1578 4219 1281 4162 
Q 984 4106 628 3988 
L 628 4550 
Q 988 4650 1302 4700 
Q 1616 4750 1894 4750 
Q 2613 4750 3031 4423 
Q 3450 4097 3450 3541 
Q 3450 3153 3228 2886 
Q 3006 2619 2597 2516 
z
" transform="scale(0.015625)"/>
       </defs>
       <use xlink:href="#DejaVuSans-33"/>
       <use xlink:href="#DejaVuSans-30" x="63.623047"/>
       <use xlink:href="#DejaVuSans-30" x="127.246094"/>
       <use xlink:href="#DejaVuSans-30" x="190.869141"/>
      </g>
     </g>
    </g>
    <g id="xtick_7">
     <g id="line2d_7">
      <g>
       <use xlink:href="#mdcb4ff6097" x="397.765818" y="307.584" style="stroke: #000000; stroke-width: 0.8"/>
      </g>
     </g>
     <g id="text_7">
      <!-- 3500 -->
      <g transform="translate(385.040818 322.182437) scale(0.1 -0.1)">
       <use xlink:href="#DejaVuSans-33"/>
       <use xlink:href="#DejaVuSans-35" x="63.623047"/>
       <use xlink:href="#DejaVuSans-30" x="127.246094"/>
       <use xlink:href="#DejaVuSans-30" x="190.869141"/>
      </g>
     </g>
    </g>
    <g id="text_8">
     <!-- $N_{train}$ -->
     <g transform="translate(224.11 335.860562) scale(0.1 -0.1)">
      <defs>
       <path id="DejaVuSans-Oblique-4e" d="M 1081 4666 
L 1931 4666 
L 3219 666 
L 4000 4666 
L 4616 4666 
L 3706 0 
L 2853 0 
L 1569 4025 
L 788 0 
L 172 0 
L 1081 4666 
z
" transform="scale(0.015625)"/>
       <path id="DejaVuSans-Oblique-74" d="M 2706 3500 
L 2619 3053 
L 1472 3053 
L 1100 1153 
Q 1081 1047 1072 975 
Q 1063 903 1063 863 
Q 1063 663 1183 572 
Q 1303 481 1569 481 
L 2150 481 
L 2053 0 
L 1503 0 
Q 991 0 739 200 
Q 488 400 488 806 
Q 488 878 497 964 
Q 506 1050 525 1153 
L 897 3053 
L 409 3053 
L 500 3500 
L 978 3500 
L 1172 4494 
L 1747 4494 
L 1556 3500 
L 2706 3500 
z
" transform="scale(0.015625)"/>
       <path id="DejaVuSans-Oblique-72" d="M 2853 2969 
Q 2766 3016 2653 3041 
Q 2541 3066 2413 3066 
Q 1953 3066 1609 2717 
Q 1266 2369 1153 1784 
L 800 0 
L 225 0 
L 909 3500 
L 1484 3500 
L 1375 2956 
Q 1603 3259 1920 3421 
Q 2238 3584 2597 3584 
Q 2691 3584 2781 3573 
Q 2872 3563 2963 3538 
L 2853 2969 
z
" transform="scale(0.015625)"/>
       <path id="DejaVuSans-Oblique-61" d="M 3438 1997 
L 3047 0 
L 2472 0 
L 2578 531 
Q 2325 219 2001 64 
Q 1678 -91 1281 -91 
Q 834 -91 548 182 
Q 263 456 263 884 
Q 263 1497 752 1853 
Q 1241 2209 2100 2209 
L 2900 2209 
L 2931 2363 
Q 2938 2388 2941 2417 
Q 2944 2447 2944 2509 
Q 2944 2788 2717 2942 
Q 2491 3097 2081 3097 
Q 1800 3097 1504 3025 
Q 1209 2953 897 2809 
L 997 3341 
Q 1322 3463 1633 3523 
Q 1944 3584 2234 3584 
Q 2853 3584 3176 3315 
Q 3500 3047 3500 2534 
Q 3500 2431 3484 2292 
Q 3469 2153 3438 1997 
z
M 2816 1759 
L 2241 1759 
Q 1534 1759 1195 1570 
Q 856 1381 856 984 
Q 856 709 1029 553 
Q 1203 397 1509 397 
Q 1978 397 2328 733 
Q 2678 1069 2791 1631 
L 2816 1759 
z
" transform="scale(0.015625)"/>
       <path id="DejaVuSans-Oblique-69" d="M 1172 4863 
L 1747 4863 
L 1606 4134 
L 1031 4134 
L 1172 4863 
z
M 909 3500 
L 1484 3500 
L 800 0 
L 225 0 
L 909 3500 
z
" transform="scale(0.015625)"/>
       <path id="DejaVuSans-Oblique-6e" d="M 3566 2113 
L 3156 0 
L 2578 0 
L 2988 2091 
Q 3016 2238 3031 2350 
Q 3047 2463 3047 2528 
Q 3047 2791 2881 2937 
Q 2716 3084 2419 3084 
Q 1956 3084 1622 2776 
Q 1288 2469 1184 1941 
L 800 0 
L 225 0 
L 903 3500 
L 1478 3500 
L 1363 2950 
Q 1603 3253 1940 3418 
Q 2278 3584 2650 3584 
Q 3113 3584 3367 3334 
Q 3622 3084 3622 2631 
Q 3622 2519 3608 2391 
Q 3594 2263 3566 2113 
z
" transform="scale(0.015625)"/>
      </defs>
      <use xlink:href="#DejaVuSans-Oblique-4e" transform="translate(0 0.09375)"/>
      <use xlink:href="#DejaVuSans-Oblique-74" transform="translate(74.804688 -16.3125) scale(0.7)"/>
      <use xlink:href="#DejaVuSans-Oblique-72" transform="translate(102.250977 -16.3125) scale(0.7)"/>
      <use xlink:href="#DejaVuSans-Oblique-61" transform="translate(131.030273 -16.3125) scale(0.7)"/>
      <use xlink:href="#DejaVuSans-Oblique-69" transform="translate(173.925781 -16.3125) scale(0.7)"/>
      <use xlink:href="#DejaVuSans-Oblique-6e" transform="translate(193.374023 -16.3125) scale(0.7)"/>
     </g>
    </g>
   </g>
   <g id="matplotlib.axis_2">
    <g id="ytick_1">
     <g id="line2d_8">
      <defs>
       <path id="m2990ba30f5" d="M 0 0 
L -3.5 0 
" style="stroke: #000000; stroke-width: 0.8"/>
      </defs>
      <g>
       <use xlink:href="#m2990ba30f5" x="57.6" y="278.079182" style="stroke: #000000; stroke-width: 0.8"/>
      </g>
     </g>
     <g id="text_9">
      <!-- 0.70 -->
      <g transform="translate(28.334375 281.878401) scale(0.1 -0.1)">
       <defs>
        <path id="DejaVuSans-2e" d="M 684 794 
L 1344 794 
L 1344 0 
L 684 0 
L 684 794 
z
" transform="scale(0.015625)"/>
        <path id="DejaVuSans-37" d="M 525 4666 
L 3525 4666 
L 3525 4397 
L 1831 0 
L 1172 0 
L 2766 4134 
L 525 4134 
L 525 4666 
z
" transform="scale(0.015625)"/>
       </defs>
       <use xlink:href="#DejaVuSans-30"/>
       <use xlink:href="#DejaVuSans-2e" x="63.623047"/>
       <use xlink:href="#DejaVuSans-37" x="95.410156"/>
       <use xlink:href="#DejaVuSans-30" x="159.033203"/>
      </g>
     </g>
    </g>
    <g id="ytick_2">
     <g id="line2d_9">
      <g>
       <use xlink:href="#m2990ba30f5" x="57.6" y="240.110106" style="stroke: #000000; stroke-width: 0.8"/>
      </g>
     </g>
     <g id="text_10">
      <!-- 0.75 -->
      <g transform="translate(28.334375 243.909325) scale(0.1 -0.1)">
       <use xlink:href="#DejaVuSans-30"/>
       <use xlink:href="#DejaVuSans-2e" x="63.623047"/>
       <use xlink:href="#DejaVuSans-37" x="95.410156"/>
       <use xlink:href="#DejaVuSans-35" x="159.033203"/>
      </g>
     </g>
    </g>
    <g id="ytick_3">
     <g id="line2d_10">
      <g>
       <use xlink:href="#m2990ba30f5" x="57.6" y="202.141031" style="stroke: #000000; stroke-width: 0.8"/>
      </g>
     </g>
     <g id="text_11">
      <!-- 0.80 -->
      <g transform="translate(28.334375 205.94025) scale(0.1 -0.1)">
       <defs>
        <path id="DejaVuSans-38" d="M 2034 2216 
Q 1584 2216 1326 1975 
Q 1069 1734 1069 1313 
Q 1069 891 1326 650 
Q 1584 409 2034 409 
Q 2484 409 2743 651 
Q 3003 894 3003 1313 
Q 3003 1734 2745 1975 
Q 2488 2216 2034 2216 
z
M 1403 2484 
Q 997 2584 770 2862 
Q 544 3141 544 3541 
Q 544 4100 942 4425 
Q 1341 4750 2034 4750 
Q 2731 4750 3128 4425 
Q 3525 4100 3525 3541 
Q 3525 3141 3298 2862 
Q 3072 2584 2669 2484 
Q 3125 2378 3379 2068 
Q 3634 1759 3634 1313 
Q 3634 634 3220 271 
Q 2806 -91 2034 -91 
Q 1263 -91 848 271 
Q 434 634 434 1313 
Q 434 1759 690 2068 
Q 947 2378 1403 2484 
z
M 1172 3481 
Q 1172 3119 1398 2916 
Q 1625 2713 2034 2713 
Q 2441 2713 2670 2916 
Q 2900 3119 2900 3481 
Q 2900 3844 2670 4047 
Q 2441 4250 2034 4250 
Q 1625 4250 1398 4047 
Q 1172 3844 1172 3481 
z
" transform="scale(0.015625)"/>
       </defs>
       <use xlink:href="#DejaVuSans-30"/>
       <use xlink:href="#DejaVuSans-2e" x="63.623047"/>
       <use xlink:href="#DejaVuSans-38" x="95.410156"/>
       <use xlink:href="#DejaVuSans-30" x="159.033203"/>
      </g>
     </g>
    </g>
    <g id="ytick_4">
     <g id="line2d_11">
      <g>
       <use xlink:href="#m2990ba30f5" x="57.6" y="164.171955" style="stroke: #000000; stroke-width: 0.8"/>
      </g>
     </g>
     <g id="text_12">
      <!-- 0.85 -->
      <g transform="translate(28.334375 167.971174) scale(0.1 -0.1)">
       <use xlink:href="#DejaVuSans-30"/>
       <use xlink:href="#DejaVuSans-2e" x="63.623047"/>
       <use xlink:href="#DejaVuSans-38" x="95.410156"/>
       <use xlink:href="#DejaVuSans-35" x="159.033203"/>
      </g>
     </g>
    </g>
    <g id="ytick_5">
     <g id="line2d_12">
      <g>
       <use xlink:href="#m2990ba30f5" x="57.6" y="126.20288" style="stroke: #000000; stroke-width: 0.8"/>
      </g>
     </g>
     <g id="text_13">
      <!-- 0.90 -->
      <g transform="translate(28.334375 130.002098) scale(0.1 -0.1)">
       <defs>
        <path id="DejaVuSans-39" d="M 703 97 
L 703 672 
Q 941 559 1184 500 
Q 1428 441 1663 441 
Q 2288 441 2617 861 
Q 2947 1281 2994 2138 
Q 2813 1869 2534 1725 
Q 2256 1581 1919 1581 
Q 1219 1581 811 2004 
Q 403 2428 403 3163 
Q 403 3881 828 4315 
Q 1253 4750 1959 4750 
Q 2769 4750 3195 4129 
Q 3622 3509 3622 2328 
Q 3622 1225 3098 567 
Q 2575 -91 1691 -91 
Q 1453 -91 1209 -44 
Q 966 3 703 97 
z
M 1959 2075 
Q 2384 2075 2632 2365 
Q 2881 2656 2881 3163 
Q 2881 3666 2632 3958 
Q 2384 4250 1959 4250 
Q 1534 4250 1286 3958 
Q 1038 3666 1038 3163 
Q 1038 2656 1286 2365 
Q 1534 2075 1959 2075 
z
" transform="scale(0.015625)"/>
       </defs>
       <use xlink:href="#DejaVuSans-30"/>
       <use xlink:href="#DejaVuSans-2e" x="63.623047"/>
       <use xlink:href="#DejaVuSans-39" x="95.410156"/>
       <use xlink:href="#DejaVuSans-30" x="159.033203"/>
      </g>
     </g>
    </g>
    <g id="ytick_6">
     <g id="line2d_13">
      <g>
       <use xlink:href="#m2990ba30f5" x="57.6" y="88.233804" style="stroke: #000000; stroke-width: 0.8"/>
      </g>
     </g>
     <g id="text_14">
      <!-- 0.95 -->
      <g transform="translate(28.334375 92.033023) scale(0.1 -0.1)">
       <use xlink:href="#DejaVuSans-30"/>
       <use xlink:href="#DejaVuSans-2e" x="63.623047"/>
       <use xlink:href="#DejaVuSans-39" x="95.410156"/>
       <use xlink:href="#DejaVuSans-35" x="159.033203"/>
      </g>
     </g>
    </g>
    <g id="ytick_7">
     <g id="line2d_14">
      <g>
       <use xlink:href="#m2990ba30f5" x="57.6" y="50.264728" style="stroke: #000000; stroke-width: 0.8"/>
      </g>
     </g>
     <g id="text_15">
      <!-- 1.00 -->
      <g transform="translate(28.334375 54.063947) scale(0.1 -0.1)">
       <use xlink:href="#DejaVuSans-31"/>
       <use xlink:href="#DejaVuSans-2e" x="63.623047"/>
       <use xlink:href="#DejaVuSans-30" x="95.410156"/>
       <use xlink:href="#DejaVuSans-30" x="159.033203"/>
      </g>
     </g>
    </g>
    <g id="text_16">
     <!-- Accuracy -->
     <g transform="translate(22.254687 197.356125) rotate(-90) scale(0.1 -0.1)">
      <defs>
       <path id="DejaVuSans-41" d="M 2188 4044 
L 1331 1722 
L 3047 1722 
L 2188 4044 
z
M 1831 4666 
L 2547 4666 
L 4325 0 
L 3669 0 
L 3244 1197 
L 1141 1197 
L 716 0 
L 50 0 
L 1831 4666 
z
" transform="scale(0.015625)"/>
       <path id="DejaVuSans-63" d="M 3122 3366 
L 3122 2828 
Q 2878 2963 2633 3030 
Q 2388 3097 2138 3097 
Q 1578 3097 1268 2742 
Q 959 2388 959 1747 
Q 959 1106 1268 751 
Q 1578 397 2138 397 
Q 2388 397 2633 464 
Q 2878 531 3122 666 
L 3122 134 
Q 2881 22 2623 -34 
Q 2366 -91 2075 -91 
Q 1284 -91 818 406 
Q 353 903 353 1747 
Q 353 2603 823 3093 
Q 1294 3584 2113 3584 
Q 2378 3584 2631 3529 
Q 2884 3475 3122 3366 
z
" transform="scale(0.015625)"/>
       <path id="DejaVuSans-75" d="M 544 1381 
L 544 3500 
L 1119 3500 
L 1119 1403 
Q 1119 906 1312 657 
Q 1506 409 1894 409 
Q 2359 409 2629 706 
Q 2900 1003 2900 1516 
L 2900 3500 
L 3475 3500 
L 3475 0 
L 2900 0 
L 2900 538 
Q 2691 219 2414 64 
Q 2138 -91 1772 -91 
Q 1169 -91 856 284 
Q 544 659 544 1381 
z
M 1991 3584 
L 1991 3584 
z
" transform="scale(0.015625)"/>
       <path id="DejaVuSans-72" d="M 2631 2963 
Q 2534 3019 2420 3045 
Q 2306 3072 2169 3072 
Q 1681 3072 1420 2755 
Q 1159 2438 1159 1844 
L 1159 0 
L 581 0 
L 581 3500 
L 1159 3500 
L 1159 2956 
Q 1341 3275 1631 3429 
Q 1922 3584 2338 3584 
Q 2397 3584 2469 3576 
Q 2541 3569 2628 3553 
L 2631 2963 
z
" transform="scale(0.015625)"/>
       <path id="DejaVuSans-61" d="M 2194 1759 
Q 1497 1759 1228 1600 
Q 959 1441 959 1056 
Q 959 750 1161 570 
Q 1363 391 1709 391 
Q 2188 391 2477 730 
Q 2766 1069 2766 1631 
L 2766 1759 
L 2194 1759 
z
M 3341 1997 
L 3341 0 
L 2766 0 
L 2766 531 
Q 2569 213 2275 61 
Q 1981 -91 1556 -91 
Q 1019 -91 701 211 
Q 384 513 384 1019 
Q 384 1609 779 1909 
Q 1175 2209 1959 2209 
L 2766 2209 
L 2766 2266 
Q 2766 2663 2505 2880 
Q 2244 3097 1772 3097 
Q 1472 3097 1187 3025 
Q 903 2953 641 2809 
L 641 3341 
Q 956 3463 1253 3523 
Q 1550 3584 1831 3584 
Q 2591 3584 2966 3190 
Q 3341 2797 3341 1997 
z
" transform="scale(0.015625)"/>
       <path id="DejaVuSans-79" d="M 2059 -325 
Q 1816 -950 1584 -1140 
Q 1353 -1331 966 -1331 
L 506 -1331 
L 506 -850 
L 844 -850 
Q 1081 -850 1212 -737 
Q 1344 -625 1503 -206 
L 1606 56 
L 191 3500 
L 800 3500 
L 1894 763 
L 2988 3500 
L 3597 3500 
L 2059 -325 
z
" transform="scale(0.015625)"/>
      </defs>
      <use xlink:href="#DejaVuSans-41"/>
      <use xlink:href="#DejaVuSans-63" x="66.658203"/>
      <use xlink:href="#DejaVuSans-63" x="121.638672"/>
      <use xlink:href="#DejaVuSans-75" x="176.619141"/>
      <use xlink:href="#DejaVuSans-72" x="239.998047"/>
      <use xlink:href="#DejaVuSans-61" x="281.111328"/>
      <use xlink:href="#DejaVuSans-63" x="342.390625"/>
      <use xlink:href="#DejaVuSans-79" x="397.371094"/>
     </g>
    </g>
   </g>
   <g id="line2d_15">
    <path d="M 73.832727 287.571451 
L 109.905455 188.851858 
L 145.978182 127.468487 
L 182.050909 101.048352 
L 218.123636 92.030717 
L 254.196364 61.339009 
L 290.269091 58.672133 
L 326.341818 53.82432 
L 362.414545 63.342968 
L 398.487273 56.909288 
" clip-path="url(#pa6cb69c86c)" style="fill: none; stroke: #0000ff; stroke-width: 1.5; stroke-linecap: square"/>
   </g>
   <g id="LineCollection_1">
    <path d="M 73.832727 295.488 
L 73.832727 279.654902 
" clip-path="url(#pa6cb69c86c)" style="fill: none; stroke: #0000ff"/>
    <path d="M 109.905455 199.442818 
L 109.905455 178.260898 
" clip-path="url(#pa6cb69c86c)" style="fill: none; stroke: #0000ff"/>
    <path d="M 145.978182 136.7728 
L 145.978182 118.164174 
" clip-path="url(#pa6cb69c86c)" style="fill: none; stroke: #0000ff"/>
    <path d="M 182.050909 108.408007 
L 182.050909 93.688698 
" clip-path="url(#pa6cb69c86c)" style="fill: none; stroke: #0000ff"/>
    <path d="M 218.123636 98.181759 
L 218.123636 85.879675 
" clip-path="url(#pa6cb69c86c)" style="fill: none; stroke: #0000ff"/>
    <path d="M 254.196364 63.64612 
L 254.196364 59.031897 
" clip-path="url(#pa6cb69c86c)" style="fill: none; stroke: #0000ff"/>
    <path d="M 290.269091 59.789985 
L 290.269091 57.55428 
" clip-path="url(#pa6cb69c86c)" style="fill: none; stroke: #0000ff"/>
    <path d="M 326.341818 54.08064 
L 326.341818 53.568 
" clip-path="url(#pa6cb69c86c)" style="fill: none; stroke: #0000ff"/>
    <path d="M 362.414545 66.158655 
L 362.414545 60.527281 
" clip-path="url(#pa6cb69c86c)" style="fill: none; stroke: #0000ff"/>
    <path d="M 398.487273 58.035099 
L 398.487273 55.783476 
" clip-path="url(#pa6cb69c86c)" style="fill: none; stroke: #0000ff"/>
   </g>
   <g id="line2d_16">
    <defs>
     <path id="m7af9564560" d="M 4 0 
L -4 -0 
" style="stroke: #0000ff"/>
    </defs>
    <g clip-path="url(#pa6cb69c86c)">
     <use xlink:href="#m7af9564560" x="73.832727" y="295.488" style="fill: #0000ff; stroke: #0000ff"/>
     <use xlink:href="#m7af9564560" x="109.905455" y="199.442818" style="fill: #0000ff; stroke: #0000ff"/>
     <use xlink:href="#m7af9564560" x="145.978182" y="136.7728" style="fill: #0000ff; stroke: #0000ff"/>
     <use xlink:href="#m7af9564560" x="182.050909" y="108.408007" style="fill: #0000ff; stroke: #0000ff"/>
     <use xlink:href="#m7af9564560" x="218.123636" y="98.181759" style="fill: #0000ff; stroke: #0000ff"/>
     <use xlink:href="#m7af9564560" x="254.196364" y="63.64612" style="fill: #0000ff; stroke: #0000ff"/>
     <use xlink:href="#m7af9564560" x="290.269091" y="59.789985" style="fill: #0000ff; stroke: #0000ff"/>
     <use xlink:href="#m7af9564560" x="326.341818" y="54.08064" style="fill: #0000ff; stroke: #0000ff"/>
     <use xlink:href="#m7af9564560" x="362.414545" y="66.158655" style="fill: #0000ff; stroke: #0000ff"/>
     <use xlink:href="#m7af9564560" x="398.487273" y="58.035099" style="fill: #0000ff; stroke: #0000ff"/>
    </g>
   </g>
   <g id="line2d_17">
    <g clip-path="url(#pa6cb69c86c)">
     <use xlink:href="#m7af9564560" x="73.832727" y="279.654902" style="fill: #0000ff; stroke: #0000ff"/>
     <use xlink:href="#m7af9564560" x="109.905455" y="178.260898" style="fill: #0000ff; stroke: #0000ff"/>
     <use xlink:href="#m7af9564560" x="145.978182" y="118.164174" style="fill: #0000ff; stroke: #0000ff"/>
     <use xlink:href="#m7af9564560" x="182.050909" y="93.688698" style="fill: #0000ff; stroke: #0000ff"/>
     <use xlink:href="#m7af9564560" x="218.123636" y="85.879675" style="fill: #0000ff; stroke: #0000ff"/>
     <use xlink:href="#m7af9564560" x="254.196364" y="59.031897" style="fill: #0000ff; stroke: #0000ff"/>
     <use xlink:href="#m7af9564560" x="290.269091" y="57.55428" style="fill: #0000ff; stroke: #0000ff"/>
     <use xlink:href="#m7af9564560" x="326.341818" y="53.568" style="fill: #0000ff; stroke: #0000ff"/>
     <use xlink:href="#m7af9564560" x="362.414545" y="60.527281" style="fill: #0000ff; stroke: #0000ff"/>
     <use xlink:href="#m7af9564560" x="398.487273" y="55.783476" style="fill: #0000ff; stroke: #0000ff"/>
    </g>
   </g>
   <g id="line2d_18">
    <path d="M 73.832727 129.925299 
L 109.905455 101.76735 
L 145.978182 70.129335 
L 182.050909 71.232703 
L 218.123636 72.047793 
L 254.196364 57.454884 
L 290.269091 56.214325 
L 326.341818 56.229895 
L 362.414545 55.98955 
L 398.487273 55.948723 
" clip-path="url(#pa6cb69c86c)" style="fill: none; stroke: #008000; stroke-width: 1.5; stroke-linecap: square"/>
   </g>
   <g id="LineCollection_2">
    <path d="M 73.832727 135.22521 
L 73.832727 124.625388 
" clip-path="url(#pa6cb69c86c)" style="fill: none; stroke: #008000"/>
    <path d="M 109.905455 106.512797 
L 109.905455 97.021902 
" clip-path="url(#pa6cb69c86c)" style="fill: none; stroke: #008000"/>
    <path d="M 145.978182 72.322874 
L 145.978182 67.935797 
" clip-path="url(#pa6cb69c86c)" style="fill: none; stroke: #008000"/>
    <path d="M 182.050909 74.606522 
L 182.050909 67.858884 
" clip-path="url(#pa6cb69c86c)" style="fill: none; stroke: #008000"/>
    <path d="M 218.123636 74.995923 
L 218.123636 69.099664 
" clip-path="url(#pa6cb69c86c)" style="fill: none; stroke: #008000"/>
    <path d="M 254.196364 57.70752 
L 254.196364 57.202248 
" clip-path="url(#pa6cb69c86c)" style="fill: none; stroke: #008000"/>
    <path d="M 290.269091 56.443795 
L 290.269091 55.984855 
" clip-path="url(#pa6cb69c86c)" style="fill: none; stroke: #008000"/>
    <path d="M 326.341818 56.424712 
L 326.341818 56.035078 
" clip-path="url(#pa6cb69c86c)" style="fill: none; stroke: #008000"/>
    <path d="M 362.414545 56.277929 
L 362.414545 55.701171 
" clip-path="url(#pa6cb69c86c)" style="fill: none; stroke: #008000"/>
    <path d="M 398.487273 56.219042 
L 398.487273 55.678405 
" clip-path="url(#pa6cb69c86c)" style="fill: none; stroke: #008000"/>
   </g>
   <g id="line2d_19">
    <defs>
     <path id="m4be4c18f94" d="M 4 0 
L -4 -0 
" style="stroke: #008000"/>
    </defs>
    <g clip-path="url(#pa6cb69c86c)">
     <use xlink:href="#m4be4c18f94" x="73.832727" y="135.22521" style="fill: #008000; stroke: #008000"/>
     <use xlink:href="#m4be4c18f94" x="109.905455" y="106.512797" style="fill: #008000; stroke: #008000"/>
     <use xlink:href="#m4be4c18f94" x="145.978182" y="72.322874" style="fill: #008000; stroke: #008000"/>
     <use xlink:href="#m4be4c18f94" x="182.050909" y="74.606522" style="fill: #008000; stroke: #008000"/>
     <use xlink:href="#m4be4c18f94" x="218.123636" y="74.995923" style="fill: #008000; stroke: #008000"/>
     <use xlink:href="#m4be4c18f94" x="254.196364" y="57.70752" style="fill: #008000; stroke: #008000"/>
     <use xlink:href="#m4be4c18f94" x="290.269091" y="56.443795" style="fill: #008000; stroke: #008000"/>
     <use xlink:href="#m4be4c18f94" x="326.341818" y="56.424712" style="fill: #008000; stroke: #008000"/>
     <use xlink:href="#m4be4c18f94" x="362.414545" y="56.277929" style="fill: #008000; stroke: #008000"/>
     <use xlink:href="#m4be4c18f94" x="398.487273" y="56.219042" style="fill: #008000; stroke: #008000"/>
    </g>
   </g>
   <g id="line2d_20">
    <g clip-path="url(#pa6cb69c86c)">
     <use xlink:href="#m4be4c18f94" x="73.832727" y="124.625388" style="fill: #008000; stroke: #008000"/>
     <use xlink:href="#m4be4c18f94" x="109.905455" y="97.021902" style="fill: #008000; stroke: #008000"/>
     <use xlink:href="#m4be4c18f94" x="145.978182" y="67.935797" style="fill: #008000; stroke: #008000"/>
     <use xlink:href="#m4be4c18f94" x="182.050909" y="67.858884" style="fill: #008000; stroke: #008000"/>
     <use xlink:href="#m4be4c18f94" x="218.123636" y="69.099664" style="fill: #008000; stroke: #008000"/>
     <use xlink:href="#m4be4c18f94" x="254.196364" y="57.202248" style="fill: #008000; stroke: #008000"/>
     <use xlink:href="#m4be4c18f94" x="290.269091" y="55.984855" style="fill: #008000; stroke: #008000"/>
     <use xlink:href="#m4be4c18f94" x="326.341818" y="56.035078" style="fill: #008000; stroke: #008000"/>
     <use xlink:href="#m4be4c18f94" x="362.414545" y="55.701171" style="fill: #008000; stroke: #008000"/>
     <use xlink:href="#m4be4c18f94" x="398.487273" y="55.678405" style="fill: #008000; stroke: #008000"/>
    </g>
   </g>
   <g id="line2d_21">
    <path d="M 73.832727 268.359939 
L 109.905455 185.948439 
L 145.978182 136.508844 
L 182.050909 111.294009 
L 218.123636 91.763848 
L 254.196364 93.579379 
L 290.269091 93.542716 
L 326.341818 96.953575 
L 362.414545 87.527761 
L 398.487273 97.907214 
" clip-path="url(#pa6cb69c86c)" style="fill: none; stroke: #ff0000; stroke-width: 1.5; stroke-linecap: square"/>
   </g>
   <g id="LineCollection_3">
    <path d="M 73.832727 283.697639 
L 73.832727 253.022239 
" clip-path="url(#pa6cb69c86c)" style="fill: none; stroke: #ff0000"/>
    <path d="M 109.905455 198.382942 
L 109.905455 173.513936 
" clip-path="url(#pa6cb69c86c)" style="fill: none; stroke: #ff0000"/>
    <path d="M 145.978182 146.25052 
L 145.978182 126.767169 
" clip-path="url(#pa6cb69c86c)" style="fill: none; stroke: #ff0000"/>
    <path d="M 182.050909 115.935368 
L 182.050909 106.652651 
" clip-path="url(#pa6cb69c86c)" style="fill: none; stroke: #ff0000"/>
    <path d="M 218.123636 92.891971 
L 218.123636 90.635725 
" clip-path="url(#pa6cb69c86c)" style="fill: none; stroke: #ff0000"/>
    <path d="M 254.196364 95.49395 
L 254.196364 91.664808 
" clip-path="url(#pa6cb69c86c)" style="fill: none; stroke: #ff0000"/>
    <path d="M 290.269091 95.354307 
L 290.269091 91.731126 
" clip-path="url(#pa6cb69c86c)" style="fill: none; stroke: #ff0000"/>
    <path d="M 326.341818 98.225347 
L 326.341818 95.681802 
" clip-path="url(#pa6cb69c86c)" style="fill: none; stroke: #ff0000"/>
    <path d="M 362.414545 88.673328 
L 362.414545 86.382193 
" clip-path="url(#pa6cb69c86c)" style="fill: none; stroke: #ff0000"/>
    <path d="M 398.487273 98.957241 
L 398.487273 96.857187 
" clip-path="url(#pa6cb69c86c)" style="fill: none; stroke: #ff0000"/>
   </g>
   <g id="line2d_22">
    <defs>
     <path id="m7854f7beb4" d="M 4 0 
L -4 -0 
" style="stroke: #ff0000"/>
    </defs>
    <g clip-path="url(#pa6cb69c86c)">
     <use xlink:href="#m7854f7beb4" x="73.832727" y="283.697639" style="fill: #ff0000; stroke: #ff0000"/>
     <use xlink:href="#m7854f7beb4" x="109.905455" y="198.382942" style="fill: #ff0000; stroke: #ff0000"/>
     <use xlink:href="#m7854f7beb4" x="145.978182" y="146.25052" style="fill: #ff0000; stroke: #ff0000"/>
     <use xlink:href="#m7854f7beb4" x="182.050909" y="115.935368" style="fill: #ff0000; stroke: #ff0000"/>
     <use xlink:href="#m7854f7beb4" x="218.123636" y="92.891971" style="fill: #ff0000; stroke: #ff0000"/>
     <use xlink:href="#m7854f7beb4" x="254.196364" y="95.49395" style="fill: #ff0000; stroke: #ff0000"/>
     <use xlink:href="#m7854f7beb4" x="290.269091" y="95.354307" style="fill: #ff0000; stroke: #ff0000"/>
     <use xlink:href="#m7854f7beb4" x="326.341818" y="98.225347" style="fill: #ff0000; stroke: #ff0000"/>
     <use xlink:href="#m7854f7beb4" x="362.414545" y="88.673328" style="fill: #ff0000; stroke: #ff0000"/>
     <use xlink:href="#m7854f7beb4" x="398.487273" y="98.957241" style="fill: #ff0000; stroke: #ff0000"/>
    </g>
   </g>
   <g id="line2d_23">
    <g clip-path="url(#pa6cb69c86c)">
     <use xlink:href="#m7854f7beb4" x="73.832727" y="253.022239" style="fill: #ff0000; stroke: #ff0000"/>
     <use xlink:href="#m7854f7beb4" x="109.905455" y="173.513936" style="fill: #ff0000; stroke: #ff0000"/>
     <use xlink:href="#m7854f7beb4" x="145.978182" y="126.767169" style="fill: #ff0000; stroke: #ff0000"/>
     <use xlink:href="#m7854f7beb4" x="182.050909" y="106.652651" style="fill: #ff0000; stroke: #ff0000"/>
     <use xlink:href="#m7854f7beb4" x="218.123636" y="90.635725" style="fill: #ff0000; stroke: #ff0000"/>
     <use xlink:href="#m7854f7beb4" x="254.196364" y="91.664808" style="fill: #ff0000; stroke: #ff0000"/>
     <use xlink:href="#m7854f7beb4" x="290.269091" y="91.731126" style="fill: #ff0000; stroke: #ff0000"/>
     <use xlink:href="#m7854f7beb4" x="326.341818" y="95.681802" style="fill: #ff0000; stroke: #ff0000"/>
     <use xlink:href="#m7854f7beb4" x="362.414545" y="86.382193" style="fill: #ff0000; stroke: #ff0000"/>
     <use xlink:href="#m7854f7beb4" x="398.487273" y="96.857187" style="fill: #ff0000; stroke: #ff0000"/>
    </g>
   </g>
   <g id="line2d_24">
    <defs>
     <path id="md5acf43440" d="M 0 2 
C 0.530406 2 1.03916 1.789267 1.414214 1.414214 
C 1.789267 1.03916 2 0.530406 2 0 
C 2 -0.530406 1.789267 -1.03916 1.414214 -1.414214 
C 1.03916 -1.789267 0.530406 -2 0 -2 
C -0.530406 -2 -1.03916 -1.789267 -1.414214 -1.414214 
C -1.789267 -1.03916 -2 -0.530406 -2 0 
C -2 0.530406 -1.789267 1.03916 -1.414214 1.414214 
C -1.03916 1.789267 -0.530406 2 0 2 
z
" style="stroke: #0000ff"/>
    </defs>
    <g clip-path="url(#pa6cb69c86c)">
     <use xlink:href="#md5acf43440" x="73.832727" y="287.571451" style="fill: #ffffff; stroke: #0000ff"/>
     <use xlink:href="#md5acf43440" x="109.905455" y="188.851858" style="fill: #ffffff; stroke: #0000ff"/>
     <use xlink:href="#md5acf43440" x="145.978182" y="127.468487" style="fill: #ffffff; stroke: #0000ff"/>
     <use xlink:href="#md5acf43440" x="182.050909" y="101.048352" style="fill: #ffffff; stroke: #0000ff"/>
     <use xlink:href="#md5acf43440" x="218.123636" y="92.030717" style="fill: #ffffff; stroke: #0000ff"/>
     <use xlink:href="#md5acf43440" x="254.196364" y="61.339009" style="fill: #ffffff; stroke: #0000ff"/>
     <use xlink:href="#md5acf43440" x="290.269091" y="58.672133" style="fill: #ffffff; stroke: #0000ff"/>
     <use xlink:href="#md5acf43440" x="326.341818" y="53.82432" style="fill: #ffffff; stroke: #0000ff"/>
     <use xlink:href="#md5acf43440" x="362.414545" y="63.342968" style="fill: #ffffff; stroke: #0000ff"/>
     <use xlink:href="#md5acf43440" x="398.487273" y="56.909288" style="fill: #ffffff; stroke: #0000ff"/>
    </g>
   </g>
   <g id="line2d_25">
    <defs>
     <path id="m12d21de51f" d="M -2 2 
L 2 2 
L 2 -2 
L -2 -2 
z
" style="stroke: #008000; stroke-linejoin: miter"/>
    </defs>
    <g clip-path="url(#pa6cb69c86c)">
     <use xlink:href="#m12d21de51f" x="73.832727" y="129.925299" style="fill: #ffffff; stroke: #008000; stroke-linejoin: miter"/>
     <use xlink:href="#m12d21de51f" x="109.905455" y="101.76735" style="fill: #ffffff; stroke: #008000; stroke-linejoin: miter"/>
     <use xlink:href="#m12d21de51f" x="145.978182" y="70.129335" style="fill: #ffffff; stroke: #008000; stroke-linejoin: miter"/>
     <use xlink:href="#m12d21de51f" x="182.050909" y="71.232703" style="fill: #ffffff; stroke: #008000; stroke-linejoin: miter"/>
     <use xlink:href="#m12d21de51f" x="218.123636" y="72.047793" style="fill: #ffffff; stroke: #008000; stroke-linejoin: miter"/>
     <use xlink:href="#m12d21de51f" x="254.196364" y="57.454884" style="fill: #ffffff; stroke: #008000; stroke-linejoin: miter"/>
     <use xlink:href="#m12d21de51f" x="290.269091" y="56.214325" style="fill: #ffffff; stroke: #008000; stroke-linejoin: miter"/>
     <use xlink:href="#m12d21de51f" x="326.341818" y="56.229895" style="fill: #ffffff; stroke: #008000; stroke-linejoin: miter"/>
     <use xlink:href="#m12d21de51f" x="362.414545" y="55.98955" style="fill: #ffffff; stroke: #008000; stroke-linejoin: miter"/>
     <use xlink:href="#m12d21de51f" x="398.487273" y="55.948723" style="fill: #ffffff; stroke: #008000; stroke-linejoin: miter"/>
    </g>
   </g>
   <g id="line2d_26">
    <defs>
     <path id="m7c5ac059f6" d="M -0 2 
L 2 -2 
L -2 -2 
z
" style="stroke: #ff0000; stroke-linejoin: miter"/>
    </defs>
    <g clip-path="url(#pa6cb69c86c)">
     <use xlink:href="#m7c5ac059f6" x="73.832727" y="268.359939" style="fill: #ffffff; stroke: #ff0000; stroke-linejoin: miter"/>
     <use xlink:href="#m7c5ac059f6" x="109.905455" y="185.948439" style="fill: #ffffff; stroke: #ff0000; stroke-linejoin: miter"/>
     <use xlink:href="#m7c5ac059f6" x="145.978182" y="136.508844" style="fill: #ffffff; stroke: #ff0000; stroke-linejoin: miter"/>
     <use xlink:href="#m7c5ac059f6" x="182.050909" y="111.294009" style="fill: #ffffff; stroke: #ff0000; stroke-linejoin: miter"/>
     <use xlink:href="#m7c5ac059f6" x="218.123636" y="91.763848" style="fill: #ffffff; stroke: #ff0000; stroke-linejoin: miter"/>
     <use xlink:href="#m7c5ac059f6" x="254.196364" y="93.579379" style="fill: #ffffff; stroke: #ff0000; stroke-linejoin: miter"/>
     <use xlink:href="#m7c5ac059f6" x="290.269091" y="93.542716" style="fill: #ffffff; stroke: #ff0000; stroke-linejoin: miter"/>
     <use xlink:href="#m7c5ac059f6" x="326.341818" y="96.953575" style="fill: #ffffff; stroke: #ff0000; stroke-linejoin: miter"/>
     <use xlink:href="#m7c5ac059f6" x="362.414545" y="87.527761" style="fill: #ffffff; stroke: #ff0000; stroke-linejoin: miter"/>
     <use xlink:href="#m7c5ac059f6" x="398.487273" y="97.907214" style="fill: #ffffff; stroke: #ff0000; stroke-linejoin: miter"/>
    </g>
   </g>
   <g id="patch_3">
    <path d="M 57.6 307.584 
L 57.6 41.472 
" style="fill: none; stroke: #000000; stroke-width: 0.8; stroke-linejoin: miter; stroke-linecap: square"/>
   </g>
   <g id="patch_4">
    <path d="M 414.72 307.584 
L 414.72 41.472 
" style="fill: none; stroke: #000000; stroke-width: 0.8; stroke-linejoin: miter; stroke-linecap: square"/>
   </g>
   <g id="patch_5">
    <path d="M 57.6 307.584 
L 414.72 307.584 
" style="fill: none; stroke: #000000; stroke-width: 0.8; stroke-linejoin: miter; stroke-linecap: square"/>
   </g>
   <g id="patch_6">
    <path d="M 57.6 41.472 
L 414.72 41.472 
" style="fill: none; stroke: #000000; stroke-width: 0.8; stroke-linejoin: miter; stroke-linecap: square"/>
   </g>
   <g id="legend_1">
    <g id="patch_7">
     <path d="M 301.346563 302.584 
L 407.72 302.584 
Q 409.72 302.584 409.72 300.584 
L 409.72 257.549625 
Q 409.72 255.549625 407.72 255.549625 
L 301.346563 255.549625 
Q 299.346563 255.549625 299.346563 257.549625 
L 299.346563 300.584 
Q 299.346563 302.584 301.346563 302.584 
z
" style="fill: #ffffff; opacity: 0.8; stroke: #cccccc; stroke-linejoin: miter"/>
    </g>
    <g id="LineCollection_4">
     <path d="M 313.346563 268.648062 
L 313.346563 258.648062 
" style="fill: none; stroke: #0000ff"/>
    </g>
    <g id="line2d_27">
     <g>
      <use xlink:href="#m7af9564560" x="313.346563" y="268.648062" style="fill: #0000ff; stroke: #0000ff"/>
     </g>
    </g>
    <g id="line2d_28">
     <g>
      <use xlink:href="#m7af9564560" x="313.346563" y="258.648062" style="fill: #0000ff; stroke: #0000ff"/>
     </g>
    </g>
    <g id="line2d_29"/>
    <g id="line2d_30">
     <g>
      <use xlink:href="#md5acf43440" x="313.346563" y="263.648062" style="fill: #ffffff; stroke: #0000ff"/>
     </g>
    </g>
    <g id="text_17">
     <!-- testing -->
     <g transform="translate(331.346563 267.148062) scale(0.1 -0.1)">
      <defs>
       <path id="DejaVuSans-74" d="M 1172 4494 
L 1172 3500 
L 2356 3500 
L 2356 3053 
L 1172 3053 
L 1172 1153 
Q 1172 725 1289 603 
Q 1406 481 1766 481 
L 2356 481 
L 2356 0 
L 1766 0 
Q 1100 0 847 248 
Q 594 497 594 1153 
L 594 3053 
L 172 3053 
L 172 3500 
L 594 3500 
L 594 4494 
L 1172 4494 
z
" transform="scale(0.015625)"/>
       <path id="DejaVuSans-65" d="M 3597 1894 
L 3597 1613 
L 953 1613 
Q 991 1019 1311 708 
Q 1631 397 2203 397 
Q 2534 397 2845 478 
Q 3156 559 3463 722 
L 3463 178 
Q 3153 47 2828 -22 
Q 2503 -91 2169 -91 
Q 1331 -91 842 396 
Q 353 884 353 1716 
Q 353 2575 817 3079 
Q 1281 3584 2069 3584 
Q 2775 3584 3186 3129 
Q 3597 2675 3597 1894 
z
M 3022 2063 
Q 3016 2534 2758 2815 
Q 2500 3097 2075 3097 
Q 1594 3097 1305 2825 
Q 1016 2553 972 2059 
L 3022 2063 
z
" transform="scale(0.015625)"/>
       <path id="DejaVuSans-73" d="M 2834 3397 
L 2834 2853 
Q 2591 2978 2328 3040 
Q 2066 3103 1784 3103 
Q 1356 3103 1142 2972 
Q 928 2841 928 2578 
Q 928 2378 1081 2264 
Q 1234 2150 1697 2047 
L 1894 2003 
Q 2506 1872 2764 1633 
Q 3022 1394 3022 966 
Q 3022 478 2636 193 
Q 2250 -91 1575 -91 
Q 1294 -91 989 -36 
Q 684 19 347 128 
L 347 722 
Q 666 556 975 473 
Q 1284 391 1588 391 
Q 1994 391 2212 530 
Q 2431 669 2431 922 
Q 2431 1156 2273 1281 
Q 2116 1406 1581 1522 
L 1381 1569 
Q 847 1681 609 1914 
Q 372 2147 372 2553 
Q 372 3047 722 3315 
Q 1072 3584 1716 3584 
Q 2034 3584 2315 3537 
Q 2597 3491 2834 3397 
z
" transform="scale(0.015625)"/>
       <path id="DejaVuSans-69" d="M 603 3500 
L 1178 3500 
L 1178 0 
L 603 0 
L 603 3500 
z
M 603 4863 
L 1178 4863 
L 1178 4134 
L 603 4134 
L 603 4863 
z
" transform="scale(0.015625)"/>
       <path id="DejaVuSans-6e" d="M 3513 2113 
L 3513 0 
L 2938 0 
L 2938 2094 
Q 2938 2591 2744 2837 
Q 2550 3084 2163 3084 
Q 1697 3084 1428 2787 
Q 1159 2491 1159 1978 
L 1159 0 
L 581 0 
L 581 3500 
L 1159 3500 
L 1159 2956 
Q 1366 3272 1645 3428 
Q 1925 3584 2291 3584 
Q 2894 3584 3203 3211 
Q 3513 2838 3513 2113 
z
" transform="scale(0.015625)"/>
       <path id="DejaVuSans-67" d="M 2906 1791 
Q 2906 2416 2648 2759 
Q 2391 3103 1925 3103 
Q 1463 3103 1205 2759 
Q 947 2416 947 1791 
Q 947 1169 1205 825 
Q 1463 481 1925 481 
Q 2391 481 2648 825 
Q 2906 1169 2906 1791 
z
M 3481 434 
Q 3481 -459 3084 -895 
Q 2688 -1331 1869 -1331 
Q 1566 -1331 1297 -1286 
Q 1028 -1241 775 -1147 
L 775 -588 
Q 1028 -725 1275 -790 
Q 1522 -856 1778 -856 
Q 2344 -856 2625 -561 
Q 2906 -266 2906 331 
L 2906 616 
Q 2728 306 2450 153 
Q 2172 0 1784 0 
Q 1141 0 747 490 
Q 353 981 353 1791 
Q 353 2603 747 3093 
Q 1141 3584 1784 3584 
Q 2172 3584 2450 3431 
Q 2728 3278 2906 2969 
L 2906 3500 
L 3481 3500 
L 3481 434 
z
" transform="scale(0.015625)"/>
      </defs>
      <use xlink:href="#DejaVuSans-74"/>
      <use xlink:href="#DejaVuSans-65" x="39.208984"/>
      <use xlink:href="#DejaVuSans-73" x="100.732422"/>
      <use xlink:href="#DejaVuSans-74" x="152.832031"/>
      <use xlink:href="#DejaVuSans-69" x="192.041016"/>
      <use xlink:href="#DejaVuSans-6e" x="219.824219"/>
      <use xlink:href="#DejaVuSans-67" x="283.203125"/>
     </g>
    </g>
    <g id="LineCollection_5">
     <path d="M 313.346563 283.326188 
L 313.346563 273.326188 
" style="fill: none; stroke: #008000"/>
    </g>
    <g id="line2d_31">
     <g>
      <use xlink:href="#m4be4c18f94" x="313.346563" y="283.326188" style="fill: #008000; stroke: #008000"/>
     </g>
    </g>
    <g id="line2d_32">
     <g>
      <use xlink:href="#m4be4c18f94" x="313.346563" y="273.326188" style="fill: #008000; stroke: #008000"/>
     </g>
    </g>
    <g id="line2d_33"/>
    <g id="line2d_34">
     <g>
      <use xlink:href="#m12d21de51f" x="313.346563" y="278.326188" style="fill: #ffffff; stroke: #008000; stroke-linejoin: miter"/>
     </g>
    </g>
    <g id="text_18">
     <!-- testing unseen -->
     <g transform="translate(331.346563 281.826188) scale(0.1 -0.1)">
      <defs>
       <path id="DejaVuSans-20" transform="scale(0.015625)"/>
      </defs>
      <use xlink:href="#DejaVuSans-74"/>
      <use xlink:href="#DejaVuSans-65" x="39.208984"/>
      <use xlink:href="#DejaVuSans-73" x="100.732422"/>
      <use xlink:href="#DejaVuSans-74" x="152.832031"/>
      <use xlink:href="#DejaVuSans-69" x="192.041016"/>
      <use xlink:href="#DejaVuSans-6e" x="219.824219"/>
      <use xlink:href="#DejaVuSans-67" x="283.203125"/>
      <use xlink:href="#DejaVuSans-20" x="346.679688"/>
      <use xlink:href="#DejaVuSans-75" x="378.466797"/>
      <use xlink:href="#DejaVuSans-6e" x="441.845703"/>
      <use xlink:href="#DejaVuSans-73" x="505.224609"/>
      <use xlink:href="#DejaVuSans-65" x="557.324219"/>
      <use xlink:href="#DejaVuSans-65" x="618.847656"/>
      <use xlink:href="#DejaVuSans-6e" x="680.371094"/>
     </g>
    </g>
    <g id="LineCollection_6">
     <path d="M 313.346563 298.004312 
L 313.346563 288.004312 
" style="fill: none; stroke: #ff0000"/>
    </g>
    <g id="line2d_35">
     <g>
      <use xlink:href="#m7854f7beb4" x="313.346563" y="298.004312" style="fill: #ff0000; stroke: #ff0000"/>
     </g>
    </g>
    <g id="line2d_36">
     <g>
      <use xlink:href="#m7854f7beb4" x="313.346563" y="288.004312" style="fill: #ff0000; stroke: #ff0000"/>
     </g>
    </g>
    <g id="line2d_37"/>
    <g id="line2d_38">
     <g>
      <use xlink:href="#m7c5ac059f6" x="313.346563" y="293.004312" style="fill: #ffffff; stroke: #ff0000; stroke-linejoin: miter"/>
     </g>
    </g>
    <g id="text_19">
     <!-- graphene -->
     <g transform="translate(331.346563 296.504312) scale(0.1 -0.1)">
      <defs>
       <path id="DejaVuSans-70" d="M 1159 525 
L 1159 -1331 
L 581 -1331 
L 581 3500 
L 1159 3500 
L 1159 2969 
Q 1341 3281 1617 3432 
Q 1894 3584 2278 3584 
Q 2916 3584 3314 3078 
Q 3713 2572 3713 1747 
Q 3713 922 3314 415 
Q 2916 -91 2278 -91 
Q 1894 -91 1617 61 
Q 1341 213 1159 525 
z
M 3116 1747 
Q 3116 2381 2855 2742 
Q 2594 3103 2138 3103 
Q 1681 3103 1420 2742 
Q 1159 2381 1159 1747 
Q 1159 1113 1420 752 
Q 1681 391 2138 391 
Q 2594 391 2855 752 
Q 3116 1113 3116 1747 
z
" transform="scale(0.015625)"/>
       <path id="DejaVuSans-68" d="M 3513 2113 
L 3513 0 
L 2938 0 
L 2938 2094 
Q 2938 2591 2744 2837 
Q 2550 3084 2163 3084 
Q 1697 3084 1428 2787 
Q 1159 2491 1159 1978 
L 1159 0 
L 581 0 
L 581 4863 
L 1159 4863 
L 1159 2956 
Q 1366 3272 1645 3428 
Q 1925 3584 2291 3584 
Q 2894 3584 3203 3211 
Q 3513 2838 3513 2113 
z
" transform="scale(0.015625)"/>
      </defs>
      <use xlink:href="#DejaVuSans-67"/>
      <use xlink:href="#DejaVuSans-72" x="63.476562"/>
      <use xlink:href="#DejaVuSans-61" x="104.589844"/>
      <use xlink:href="#DejaVuSans-70" x="165.869141"/>
      <use xlink:href="#DejaVuSans-68" x="229.345703"/>
      <use xlink:href="#DejaVuSans-65" x="292.724609"/>
      <use xlink:href="#DejaVuSans-6e" x="354.248047"/>
      <use xlink:href="#DejaVuSans-65" x="417.626953"/>
     </g>
    </g>
   </g>
  </g>
 </g>
 <defs>
  <clipPath id="pa6cb69c86c">
   <rect x="57.6" y="41.472" width="357.12" height="266.112"/>
  </clipPath>
 </defs>
</svg>
